G04 EAGLE Gerber RS-274X export*
G75*
%MOMM*%
%FSLAX34Y34*%
%LPD*%
%INTop Copper*%
%IPPOS*%
%AMOC8*
5,1,8,0,0,1.08239X$1,22.5*%
G01*
G04 Define Apertures*
%ADD10R,1.248000X1.248000*%
%ADD11C,1.248000*%
%ADD12C,1.308000*%
%ADD13R,1.408000X1.408000*%
%ADD14C,1.408000*%
%ADD15C,1.222000*%
%ADD16R,1.222000X1.222000*%
%ADD17C,1.524000*%
%ADD18C,2.857500*%
%ADD19C,0.152400*%
%ADD20C,0.756400*%
D10*
X176200Y762000D03*
D11*
X176200Y736600D03*
X176200Y711200D03*
X176200Y685800D03*
X255600Y685800D03*
X255600Y711200D03*
X255600Y736600D03*
X255600Y762000D03*
D12*
X101600Y732400D03*
X101600Y842400D03*
X101600Y592700D03*
X101600Y702700D03*
X300600Y800100D03*
X410600Y800100D03*
D13*
X431800Y889000D03*
D14*
X431800Y914000D03*
D12*
X283568Y711200D03*
X393568Y711200D03*
D15*
X477785Y736564D03*
X452385Y761964D03*
D16*
X426985Y736564D03*
D13*
X88900Y914400D03*
D14*
X88900Y889400D03*
D17*
X254460Y940653D03*
X229060Y940653D03*
D18*
X203660Y991453D03*
X305260Y991453D03*
D19*
X101600Y732400D02*
X101600Y702700D01*
X120140Y736600D02*
X176200Y736600D01*
X120140Y736600D02*
X101600Y732400D01*
X255600Y711200D02*
X283568Y711200D01*
X281000Y736600D02*
X305600Y761200D01*
X281000Y736600D02*
X255600Y736600D01*
X305600Y761200D02*
X443700Y761200D01*
X452385Y761964D02*
X457164Y761964D01*
X431800Y838200D02*
X431800Y889000D01*
X431800Y838200D02*
X457200Y812800D01*
X457200Y766779D01*
X452385Y761964D01*
X266700Y762000D02*
X255600Y762000D01*
X133388Y842400D02*
X131200Y842400D01*
X127000Y842400D02*
X118500Y842400D01*
X127000Y842400D02*
X101600Y842400D01*
X88900Y914400D02*
X115369Y914400D01*
X139700Y890069D01*
X266700Y762000D02*
X280064Y775364D01*
X261974Y842926D02*
X127526Y842926D01*
X261974Y842926D02*
X280064Y824836D01*
X280064Y775364D01*
X127526Y842926D02*
X127000Y842400D01*
X139700Y863600D02*
X139700Y890069D01*
X139700Y863600D02*
X118500Y842400D01*
X127000Y842400D02*
X131200Y842400D01*
X431400Y914400D02*
X431800Y914000D01*
X418932Y736564D02*
X393568Y711200D01*
X418932Y736564D02*
X426985Y736564D01*
X279400Y685800D02*
X255600Y685800D01*
X279400Y685800D02*
X292100Y673100D01*
X292100Y635000D01*
X279400Y622300D01*
X241300Y622300D01*
X215900Y647700D01*
X215900Y812800D02*
X228600Y825500D01*
X215900Y812800D02*
X215900Y647700D01*
D20*
X228600Y825500D03*
X228600Y863600D03*
D19*
X254460Y889460D01*
X254460Y940653D01*
M02*
