G04 EAGLE Gerber RS-274X export*
G75*
%MOMM*%
%FSLAX34Y34*%
%LPD*%
%INBottom Copper*%
%IPPOS*%
%AMOC8*
5,1,8,0,0,1.08239X$1,22.5*%
G01*
G04 Define Apertures*
%ADD10R,1.248000X1.248000*%
%ADD11C,1.248000*%
%ADD12C,1.308000*%
%ADD13R,1.408000X1.408000*%
%ADD14C,1.408000*%
%ADD15C,1.222000*%
%ADD16R,1.222000X1.222000*%
%ADD17C,1.524000*%
%ADD18C,2.857500*%
%ADD19C,0.152400*%
%ADD20C,0.756400*%
D10*
X176200Y762000D03*
D11*
X176200Y736600D03*
X176200Y711200D03*
X176200Y685800D03*
X255600Y685800D03*
X255600Y711200D03*
X255600Y736600D03*
X255600Y762000D03*
D12*
X101600Y732400D03*
X101600Y842400D03*
X101600Y592700D03*
X101600Y702700D03*
X300600Y800100D03*
X410600Y800100D03*
D13*
X431800Y889000D03*
D14*
X431800Y914000D03*
D12*
X283568Y711200D03*
X393568Y711200D03*
D15*
X477785Y736564D03*
X452385Y761964D03*
D16*
X426985Y736564D03*
D13*
X88900Y914400D03*
D14*
X88900Y889400D03*
D17*
X254460Y940653D03*
X229060Y940653D03*
D18*
X203660Y991453D03*
X305260Y991453D03*
D19*
X176200Y711200D02*
X150800Y711200D01*
X139700Y722300D01*
X139700Y749300D01*
X152400Y762000D01*
X176200Y762000D01*
X139700Y774700D02*
X139700Y787400D01*
X139700Y774700D02*
X152400Y762000D01*
X284386Y804826D02*
X289112Y800100D01*
X284386Y804826D02*
X157126Y804826D01*
X139700Y787400D01*
X289112Y800100D02*
X300600Y800100D01*
X304800Y749300D02*
X381000Y749300D01*
X410600Y778900D02*
X410600Y800100D01*
X410600Y778900D02*
X381000Y749300D01*
X283568Y711200D02*
X279400Y715368D01*
X279400Y723900D01*
X304800Y749300D01*
X255600Y762000D02*
X255600Y763600D01*
X139700Y609600D02*
X122800Y592700D01*
X101600Y592700D01*
X152400Y685800D02*
X176200Y685800D01*
X152400Y685800D02*
X139700Y673100D01*
X139700Y609600D01*
X86324Y599476D02*
X50800Y635000D01*
X86324Y599476D02*
X101600Y592700D01*
X50800Y635000D02*
X50800Y863600D01*
X76600Y889400D01*
X88900Y889400D01*
X89300Y889000D01*
X88900Y889400D02*
X216300Y889400D01*
X431400Y914400D02*
X431800Y914000D01*
X229060Y902160D02*
X216300Y889400D01*
X229060Y901240D02*
X241300Y889000D01*
X229060Y901240D02*
X229060Y902160D01*
X229060Y940653D01*
X381400Y914000D02*
X431800Y914000D01*
X381400Y914000D02*
X381000Y914400D01*
X355600Y889000D01*
X241300Y889000D01*
D20*
X228600Y825500D03*
D19*
X228600Y863600D01*
D20*
X228600Y863600D03*
M02*
