M48
;GenerationSoftware,Autodesk,EAGLE,9.7.0*%
;CreationDate,2026-02-11T01:00:24Z*%
FMAT,2
ICI,OFF
METRIC,TZ,000.000
T7C0.350
T6C0.714
T5C0.740
T4C0.800
T3C0.900
T2C1.016
T1C1.905
%
G90
M71
T1
X30526Y99145
X20366Y99145
T2
X22906Y94065
X25446Y94065
T3
X8890Y88940
X8890Y91440
X43180Y91400
X43180Y88900
T4
X10160Y59270
X10160Y70270
X30060Y80010
X41060Y80010
X28357Y71120
X39357Y71120
X10160Y73240
X10160Y84240
T5
X17620Y76200
X25560Y76200
X25560Y73660
X25560Y71120
X25560Y68580
X17620Y68580
X17620Y71120
X17620Y73660
T6
X47779Y73656
X45239Y76196
X42699Y73656
T7
X22860Y86360
X46990Y101600
X5080Y101600
X46990Y59690
X5080Y59690
X22860Y82550
M30