G04 EAGLE Gerber RS-274X export*
G75*
%MOMM*%
%FSLAX34Y34*%
%LPD*%
%INSilkscreen Top*%
%IPPOS*%
%AMOC8*
5,1,8,0,0,1.08239X$1,22.5*%
G01*
G04 Define Apertures*
%ADD10C,0.127000*%
%ADD11C,0.200000*%
%ADD12C,0.203200*%
%ADD13C,0.152400*%
G36*
X446735Y685625D02*
X446473Y685631D01*
X446219Y685650D01*
X445974Y685682D01*
X445737Y685726D01*
X445288Y685853D01*
X444871Y686030D01*
X444488Y686258D01*
X444138Y686536D01*
X443822Y686865D01*
X443538Y687245D01*
X443288Y687674D01*
X443070Y688148D01*
X442887Y688670D01*
X442737Y689238D01*
X442620Y689852D01*
X442536Y690513D01*
X442486Y691221D01*
X442469Y691975D01*
X442486Y692745D01*
X442534Y693465D01*
X442615Y694135D01*
X442729Y694756D01*
X442875Y695326D01*
X443053Y695847D01*
X443264Y696318D01*
X443507Y696739D01*
X443786Y697111D01*
X444102Y697433D01*
X444455Y697705D01*
X444846Y697928D01*
X445275Y698102D01*
X445504Y698170D01*
X445742Y698226D01*
X445989Y698269D01*
X446246Y698300D01*
X446512Y698319D01*
X446787Y698325D01*
X447056Y698318D01*
X447315Y698300D01*
X447565Y698268D01*
X447806Y698225D01*
X448039Y698168D01*
X448262Y698099D01*
X448683Y697924D01*
X449067Y697699D01*
X449416Y697423D01*
X449729Y697098D01*
X450006Y696722D01*
X450249Y696297D01*
X450460Y695824D01*
X450639Y695303D01*
X450785Y694734D01*
X450898Y694116D01*
X450979Y693451D01*
X451028Y692737D01*
X451044Y691975D01*
X451027Y691225D01*
X450976Y690520D01*
X450891Y689862D01*
X450771Y689249D01*
X450618Y688681D01*
X450431Y688160D01*
X450209Y687684D01*
X449954Y687254D01*
X449665Y686872D01*
X449344Y686541D01*
X448990Y686261D01*
X448604Y686032D01*
X448185Y685854D01*
X447734Y685727D01*
X447496Y685682D01*
X447251Y685650D01*
X446997Y685631D01*
X446735Y685625D01*
G37*
%LPC*%
G36*
X446752Y686912D02*
X447089Y686932D01*
X447402Y686990D01*
X447692Y687087D01*
X447959Y687223D01*
X448202Y687398D01*
X448423Y687612D01*
X448619Y687865D01*
X448793Y688156D01*
X448945Y688488D01*
X449077Y688861D01*
X449188Y689276D01*
X449279Y689733D01*
X449350Y690231D01*
X449401Y690770D01*
X449431Y691352D01*
X449441Y691975D01*
X449432Y692620D01*
X449403Y693218D01*
X449354Y693771D01*
X449287Y694278D01*
X449200Y694739D01*
X449094Y695154D01*
X448968Y695523D01*
X448824Y695846D01*
X448657Y696127D01*
X448465Y696371D01*
X448248Y696577D01*
X448006Y696746D01*
X447739Y696877D01*
X447447Y696971D01*
X447130Y697027D01*
X446787Y697046D01*
X446437Y697027D01*
X446112Y696972D01*
X445812Y696880D01*
X445538Y696750D01*
X445290Y696584D01*
X445067Y696381D01*
X444870Y696141D01*
X444698Y695864D01*
X444550Y695544D01*
X444421Y695177D01*
X444312Y694762D01*
X444222Y694300D01*
X444153Y693790D01*
X444103Y693233D01*
X444073Y692628D01*
X444063Y691975D01*
X444074Y691340D01*
X444104Y690749D01*
X444154Y690202D01*
X444224Y689700D01*
X444315Y689241D01*
X444426Y688827D01*
X444556Y688456D01*
X444707Y688130D01*
X444880Y687844D01*
X445076Y687597D01*
X445297Y687388D01*
X445540Y687217D01*
X445808Y687084D01*
X446099Y686988D01*
X446414Y686931D01*
X446752Y686912D01*
G37*
%LPD*%
G36*
X456704Y685625D02*
X456442Y685631D01*
X456188Y685650D01*
X455943Y685682D01*
X455706Y685726D01*
X455256Y685853D01*
X454840Y686030D01*
X454457Y686258D01*
X454107Y686536D01*
X453790Y686865D01*
X453507Y687245D01*
X453256Y687674D01*
X453039Y688148D01*
X452856Y688670D01*
X452705Y689238D01*
X452588Y689852D01*
X452505Y690513D01*
X452455Y691221D01*
X452438Y691975D01*
X452454Y692745D01*
X452503Y693465D01*
X452584Y694135D01*
X452698Y694756D01*
X452844Y695326D01*
X453022Y695847D01*
X453233Y696318D01*
X453476Y696739D01*
X453754Y697111D01*
X454070Y697433D01*
X454424Y697705D01*
X454815Y697928D01*
X455244Y698102D01*
X455472Y698170D01*
X455710Y698226D01*
X455958Y698269D01*
X456214Y698300D01*
X456481Y698319D01*
X456756Y698325D01*
X457024Y698318D01*
X457284Y698300D01*
X457534Y698268D01*
X457775Y698225D01*
X458008Y698168D01*
X458231Y698099D01*
X458651Y697924D01*
X459036Y697699D01*
X459385Y697423D01*
X459698Y697098D01*
X459975Y696722D01*
X460218Y696297D01*
X460429Y695824D01*
X460607Y695303D01*
X460753Y694734D01*
X460867Y694116D01*
X460948Y693451D01*
X460997Y692737D01*
X461013Y691975D01*
X460996Y691225D01*
X460945Y690520D01*
X460859Y689862D01*
X460740Y689249D01*
X460587Y688681D01*
X460399Y688160D01*
X460178Y687684D01*
X459922Y687254D01*
X459634Y686872D01*
X459312Y686541D01*
X458959Y686261D01*
X458572Y686032D01*
X458154Y685854D01*
X457703Y685727D01*
X457465Y685682D01*
X457219Y685650D01*
X456966Y685631D01*
X456704Y685625D01*
G37*
%LPC*%
G36*
X456721Y686912D02*
X457058Y686932D01*
X457371Y686990D01*
X457661Y687087D01*
X457928Y687223D01*
X458171Y687398D01*
X458391Y687612D01*
X458588Y687865D01*
X458762Y688156D01*
X458914Y688488D01*
X459045Y688861D01*
X459157Y689276D01*
X459248Y689733D01*
X459319Y690231D01*
X459369Y690770D01*
X459400Y691352D01*
X459410Y691975D01*
X459400Y692620D01*
X459371Y693218D01*
X459323Y693771D01*
X459256Y694278D01*
X459169Y694739D01*
X459063Y695154D01*
X458937Y695523D01*
X458793Y695846D01*
X458626Y696127D01*
X458434Y696371D01*
X458217Y696577D01*
X457975Y696746D01*
X457708Y696877D01*
X457416Y696971D01*
X457098Y697027D01*
X456756Y697046D01*
X456405Y697027D01*
X456080Y696972D01*
X455781Y696880D01*
X455507Y696750D01*
X455259Y696584D01*
X455036Y696381D01*
X454839Y696141D01*
X454667Y695864D01*
X454518Y695544D01*
X454389Y695177D01*
X454280Y694762D01*
X454191Y694300D01*
X454122Y693790D01*
X454072Y693233D01*
X454042Y692628D01*
X454032Y691975D01*
X454042Y691340D01*
X454072Y690749D01*
X454123Y690202D01*
X454193Y689700D01*
X454284Y689241D01*
X454394Y688827D01*
X454525Y688456D01*
X454676Y688130D01*
X454849Y687844D01*
X455045Y687597D01*
X455265Y687388D01*
X455509Y687217D01*
X455777Y687084D01*
X456068Y686988D01*
X456383Y686931D01*
X456721Y686912D01*
G37*
%LPD*%
G36*
X464851Y685800D02*
X463178Y685800D01*
X463178Y698141D01*
X464851Y698141D01*
X464851Y691957D01*
X470798Y698141D01*
X472768Y698141D01*
X467513Y692781D01*
X473469Y685800D01*
X471393Y685800D01*
X466462Y691756D01*
X464851Y690530D01*
X464851Y685800D01*
G37*
G36*
X440900Y685800D02*
X433166Y685800D01*
X433166Y687140D01*
X436311Y687140D01*
X436311Y696634D01*
X433525Y694646D01*
X433525Y696135D01*
X436442Y698141D01*
X437896Y698141D01*
X437896Y687140D01*
X440900Y687140D01*
X440900Y685800D01*
G37*
G36*
X414200Y952304D02*
X413677Y952317D01*
X413172Y952358D01*
X412685Y952425D01*
X412217Y952520D01*
X411767Y952641D01*
X411335Y952789D01*
X410921Y952965D01*
X410526Y953167D01*
X410151Y953395D01*
X409799Y953647D01*
X409470Y953923D01*
X409163Y954223D01*
X408880Y954547D01*
X408619Y954896D01*
X408381Y955268D01*
X408166Y955664D01*
X407975Y956081D01*
X407810Y956515D01*
X407670Y956966D01*
X407555Y957434D01*
X407466Y957919D01*
X407403Y958421D01*
X407364Y958940D01*
X407352Y959476D01*
X407359Y959885D01*
X407380Y960282D01*
X407416Y960669D01*
X407465Y961044D01*
X407529Y961407D01*
X407607Y961760D01*
X407699Y962101D01*
X407805Y962430D01*
X407926Y962749D01*
X408061Y963056D01*
X408210Y963352D01*
X408373Y963636D01*
X408550Y963909D01*
X408741Y964171D01*
X408947Y964422D01*
X409167Y964661D01*
X409399Y964888D01*
X409643Y965099D01*
X409897Y965296D01*
X410163Y965479D01*
X410440Y965647D01*
X410728Y965800D01*
X411027Y965939D01*
X411338Y966063D01*
X411659Y966173D01*
X411991Y966267D01*
X412335Y966348D01*
X412690Y966413D01*
X413056Y966465D01*
X413432Y966501D01*
X413821Y966523D01*
X414220Y966530D01*
X414738Y966517D01*
X415239Y966478D01*
X415723Y966412D01*
X416189Y966321D01*
X416638Y966203D01*
X417069Y966058D01*
X417483Y965888D01*
X417879Y965691D01*
X418255Y965470D01*
X418609Y965224D01*
X418939Y964955D01*
X419247Y964662D01*
X419532Y964346D01*
X419793Y964005D01*
X420033Y963641D01*
X420249Y963253D01*
X420441Y962844D01*
X420607Y962417D01*
X420748Y961972D01*
X420863Y961509D01*
X420953Y961028D01*
X421017Y960529D01*
X421055Y960011D01*
X421068Y959476D01*
X421055Y958942D01*
X421016Y958425D01*
X420951Y957926D01*
X420861Y957442D01*
X420744Y956976D01*
X420602Y956527D01*
X420433Y956094D01*
X420239Y955679D01*
X420020Y955284D01*
X419779Y954912D01*
X419516Y954564D01*
X419230Y954239D01*
X418921Y953938D01*
X418590Y953661D01*
X418236Y953407D01*
X417860Y953177D01*
X417463Y952972D01*
X417050Y952795D01*
X416618Y952645D01*
X416170Y952522D01*
X415704Y952427D01*
X415220Y952358D01*
X414719Y952317D01*
X414200Y952304D01*
G37*
%LPC*%
G36*
X414200Y953825D02*
X414781Y953848D01*
X415327Y953917D01*
X415839Y954032D01*
X416316Y954194D01*
X416758Y954401D01*
X417165Y954655D01*
X417537Y954955D01*
X417874Y955301D01*
X418175Y955689D01*
X418435Y956116D01*
X418655Y956580D01*
X418835Y957083D01*
X418975Y957624D01*
X419075Y958203D01*
X419135Y958820D01*
X419155Y959476D01*
X419135Y960104D01*
X419074Y960697D01*
X418973Y961255D01*
X418832Y961779D01*
X418651Y962268D01*
X418429Y962723D01*
X418167Y963143D01*
X417865Y963528D01*
X417525Y963873D01*
X417153Y964172D01*
X416747Y964425D01*
X416308Y964632D01*
X415836Y964793D01*
X415331Y964908D01*
X414792Y964977D01*
X414220Y965000D01*
X413643Y964977D01*
X413100Y964909D01*
X412591Y964796D01*
X412115Y964637D01*
X411673Y964433D01*
X411265Y964183D01*
X410891Y963888D01*
X410550Y963548D01*
X410247Y963166D01*
X409984Y962749D01*
X409761Y962294D01*
X409579Y961804D01*
X409437Y961276D01*
X409336Y960713D01*
X409275Y960113D01*
X409255Y959476D01*
X409276Y958843D01*
X409337Y958243D01*
X409439Y957677D01*
X409583Y957144D01*
X409767Y956646D01*
X409992Y956180D01*
X410258Y955748D01*
X410565Y955350D01*
X410908Y954993D01*
X411283Y954683D01*
X411690Y954421D01*
X412129Y954206D01*
X412599Y954039D01*
X413101Y953920D01*
X413635Y953848D01*
X413913Y953830D01*
X414200Y953825D01*
G37*
%LPD*%
G36*
X426695Y952304D02*
X426273Y952317D01*
X425881Y952358D01*
X425517Y952426D01*
X425183Y952521D01*
X424878Y952643D01*
X424603Y952792D01*
X424356Y952969D01*
X424139Y953172D01*
X423950Y953407D01*
X423785Y953677D01*
X423646Y953983D01*
X423532Y954324D01*
X423444Y954700D01*
X423381Y955112D01*
X423343Y955559D01*
X423330Y956042D01*
X423330Y963116D01*
X425106Y963116D01*
X425106Y956385D01*
X425119Y955890D01*
X425157Y955453D01*
X425222Y955075D01*
X425312Y954757D01*
X425430Y954487D01*
X425579Y954259D01*
X425759Y954070D01*
X425969Y953923D01*
X426221Y953811D01*
X426526Y953731D01*
X426883Y953684D01*
X427294Y953668D01*
X427604Y953681D01*
X427898Y953722D01*
X428174Y953790D01*
X428434Y953886D01*
X428677Y954009D01*
X428903Y954159D01*
X429113Y954336D01*
X429305Y954541D01*
X429478Y954770D01*
X429627Y955020D01*
X429753Y955291D01*
X429857Y955583D01*
X429937Y955897D01*
X429995Y956231D01*
X430029Y956587D01*
X430041Y956964D01*
X430041Y963116D01*
X431807Y963116D01*
X431807Y954766D01*
X431822Y953273D01*
X431840Y952796D01*
X431866Y952500D01*
X430198Y952500D01*
X430178Y952765D01*
X430154Y953260D01*
X430119Y954315D01*
X430090Y954315D01*
X429774Y953806D01*
X429607Y953581D01*
X429434Y953377D01*
X429255Y953193D01*
X429070Y953028D01*
X428879Y952884D01*
X428682Y952760D01*
X428476Y952653D01*
X428258Y952560D01*
X428028Y952482D01*
X427786Y952418D01*
X427531Y952368D01*
X427265Y952332D01*
X426986Y952311D01*
X426695Y952304D01*
G37*
G36*
X436862Y952343D02*
X436606Y952352D01*
X436366Y952381D01*
X436142Y952428D01*
X435935Y952493D01*
X435745Y952578D01*
X435571Y952681D01*
X435414Y952803D01*
X435273Y952944D01*
X435149Y953104D01*
X435041Y953282D01*
X434950Y953479D01*
X434876Y953695D01*
X434818Y953930D01*
X434776Y954183D01*
X434751Y954456D01*
X434743Y954747D01*
X434743Y961831D01*
X433517Y961831D01*
X433517Y963116D01*
X434812Y963116D01*
X435332Y965490D01*
X436509Y965490D01*
X436509Y963116D01*
X438471Y963116D01*
X438471Y961831D01*
X436509Y961831D01*
X436509Y955129D01*
X436525Y954775D01*
X436572Y954478D01*
X436650Y954238D01*
X436759Y954055D01*
X436907Y953920D01*
X437101Y953823D01*
X437342Y953765D01*
X437628Y953746D01*
X437824Y953755D01*
X438059Y953780D01*
X438648Y953883D01*
X438648Y952578D01*
X438209Y952476D01*
X437765Y952402D01*
X437316Y952358D01*
X436862Y952343D01*
G37*
G36*
X97573Y952500D02*
X96084Y952500D01*
X96084Y964841D01*
X98028Y964841D01*
X104702Y954260D01*
X104624Y955741D01*
X104597Y956748D01*
X104597Y964841D01*
X106104Y964841D01*
X106104Y952500D01*
X104089Y952500D01*
X97485Y963010D01*
X97529Y962161D01*
X97573Y960698D01*
X97573Y952500D01*
G37*
G36*
X55801Y952325D02*
X55344Y952338D01*
X54911Y952378D01*
X54502Y952444D01*
X54116Y952536D01*
X53754Y952655D01*
X53416Y952800D01*
X53101Y952972D01*
X52810Y953170D01*
X52545Y953394D01*
X52308Y953643D01*
X52100Y953918D01*
X51920Y954218D01*
X51768Y954543D01*
X51645Y954894D01*
X51550Y955269D01*
X51483Y955671D01*
X53112Y955819D01*
X53160Y955554D01*
X53223Y955306D01*
X53303Y955075D01*
X53399Y954862D01*
X53510Y954665D01*
X53638Y954485D01*
X53782Y954323D01*
X53942Y954177D01*
X54118Y954049D01*
X54310Y953938D01*
X54519Y953844D01*
X54743Y953767D01*
X54983Y953707D01*
X55240Y953664D01*
X55512Y953638D01*
X55801Y953630D01*
X56091Y953639D01*
X56365Y953667D01*
X56622Y953712D01*
X56864Y953777D01*
X57090Y953859D01*
X57300Y953960D01*
X57493Y954079D01*
X57671Y954217D01*
X57830Y954372D01*
X57968Y954546D01*
X58085Y954737D01*
X58180Y954946D01*
X58254Y955173D01*
X58307Y955417D01*
X58339Y955679D01*
X58350Y955960D01*
X58338Y956205D01*
X58301Y956436D01*
X58241Y956653D01*
X58156Y956856D01*
X58047Y957046D01*
X57914Y957222D01*
X57756Y957384D01*
X57575Y957532D01*
X57370Y957664D01*
X57144Y957779D01*
X56897Y957876D01*
X56628Y957955D01*
X56337Y958017D01*
X56025Y958061D01*
X55692Y958088D01*
X55337Y958097D01*
X54444Y958097D01*
X54444Y959463D01*
X55302Y959463D01*
X55617Y959472D01*
X55914Y959498D01*
X56192Y959542D01*
X56453Y959604D01*
X56695Y959684D01*
X56919Y959781D01*
X57124Y959896D01*
X57312Y960028D01*
X57479Y960176D01*
X57624Y960338D01*
X57747Y960513D01*
X57847Y960701D01*
X57925Y960903D01*
X57981Y961119D01*
X58015Y961349D01*
X58026Y961591D01*
X58017Y961832D01*
X57989Y962060D01*
X57944Y962275D01*
X57880Y962477D01*
X57798Y962666D01*
X57698Y962842D01*
X57580Y963005D01*
X57443Y963155D01*
X57289Y963289D01*
X57117Y963406D01*
X56927Y963504D01*
X56720Y963585D01*
X56495Y963648D01*
X56252Y963693D01*
X55992Y963719D01*
X55714Y963728D01*
X55459Y963720D01*
X55217Y963695D01*
X54988Y963653D01*
X54771Y963595D01*
X54566Y963520D01*
X54374Y963428D01*
X54195Y963319D01*
X54028Y963194D01*
X53875Y963054D01*
X53739Y962900D01*
X53620Y962732D01*
X53518Y962550D01*
X53433Y962355D01*
X53365Y962146D01*
X53313Y961924D01*
X53279Y961688D01*
X51693Y961810D01*
X51751Y962179D01*
X51838Y962526D01*
X51952Y962853D01*
X52095Y963159D01*
X52266Y963444D01*
X52466Y963709D01*
X52694Y963952D01*
X52950Y964175D01*
X53230Y964374D01*
X53530Y964547D01*
X53848Y964693D01*
X54186Y964812D01*
X54544Y964905D01*
X54920Y964972D01*
X55316Y965011D01*
X55731Y965025D01*
X56182Y965011D01*
X56608Y964971D01*
X57007Y964903D01*
X57381Y964809D01*
X57729Y964688D01*
X58051Y964539D01*
X58347Y964364D01*
X58617Y964162D01*
X58858Y963936D01*
X59067Y963688D01*
X59244Y963420D01*
X59389Y963130D01*
X59501Y962818D01*
X59582Y962486D01*
X59630Y962133D01*
X59646Y961758D01*
X59636Y961469D01*
X59605Y961194D01*
X59553Y960933D01*
X59481Y960686D01*
X59388Y960453D01*
X59274Y960233D01*
X59140Y960027D01*
X58985Y959835D01*
X58810Y959658D01*
X58617Y959495D01*
X58405Y959347D01*
X58174Y959215D01*
X57924Y959097D01*
X57655Y958994D01*
X57368Y958906D01*
X57062Y958832D01*
X57062Y958797D01*
X57399Y958750D01*
X57716Y958684D01*
X58014Y958597D01*
X58293Y958491D01*
X58553Y958365D01*
X58793Y958219D01*
X59015Y958054D01*
X59217Y957869D01*
X59398Y957668D01*
X59554Y957454D01*
X59687Y957228D01*
X59795Y956989D01*
X59879Y956737D01*
X59940Y956473D01*
X59976Y956196D01*
X59988Y955907D01*
X59971Y955492D01*
X59920Y955101D01*
X59835Y954735D01*
X59716Y954392D01*
X59563Y954073D01*
X59377Y953779D01*
X59156Y953508D01*
X58902Y953262D01*
X58616Y953042D01*
X58301Y952852D01*
X57957Y952691D01*
X57583Y952559D01*
X57181Y952457D01*
X56750Y952383D01*
X56290Y952340D01*
X55801Y952325D01*
G37*
G36*
X70739Y952325D02*
X70282Y952338D01*
X69849Y952378D01*
X69439Y952444D01*
X69054Y952536D01*
X68692Y952655D01*
X68353Y952800D01*
X68039Y952972D01*
X67748Y953170D01*
X67483Y953394D01*
X67246Y953643D01*
X67038Y953918D01*
X66857Y954218D01*
X66706Y954543D01*
X66582Y954894D01*
X66487Y955269D01*
X66421Y955671D01*
X68050Y955819D01*
X68097Y955554D01*
X68161Y955306D01*
X68240Y955075D01*
X68336Y954862D01*
X68448Y954665D01*
X68576Y954485D01*
X68720Y954323D01*
X68880Y954177D01*
X69056Y954049D01*
X69248Y953938D01*
X69456Y953844D01*
X69680Y953767D01*
X69921Y953707D01*
X70177Y953664D01*
X70450Y953638D01*
X70739Y953630D01*
X71028Y953639D01*
X71302Y953667D01*
X71560Y953712D01*
X71802Y953777D01*
X72027Y953859D01*
X72237Y953960D01*
X72431Y954079D01*
X72609Y954217D01*
X72768Y954372D01*
X72906Y954546D01*
X73022Y954737D01*
X73118Y954946D01*
X73192Y955173D01*
X73245Y955417D01*
X73277Y955679D01*
X73287Y955960D01*
X73275Y956205D01*
X73239Y956436D01*
X73178Y956653D01*
X73094Y956856D01*
X72985Y957046D01*
X72851Y957222D01*
X72694Y957384D01*
X72512Y957532D01*
X72308Y957664D01*
X72082Y957779D01*
X71834Y957876D01*
X71565Y957955D01*
X71275Y958017D01*
X70963Y958061D01*
X70629Y958088D01*
X70274Y958097D01*
X69381Y958097D01*
X69381Y959463D01*
X70239Y959463D01*
X70554Y959472D01*
X70851Y959498D01*
X71130Y959542D01*
X71390Y959604D01*
X71632Y959684D01*
X71856Y959781D01*
X72062Y959896D01*
X72249Y960028D01*
X72417Y960176D01*
X72562Y960338D01*
X72684Y960513D01*
X72785Y960701D01*
X72863Y960903D01*
X72919Y961119D01*
X72952Y961349D01*
X72963Y961591D01*
X72954Y961832D01*
X72927Y962060D01*
X72881Y962275D01*
X72818Y962477D01*
X72736Y962666D01*
X72636Y962842D01*
X72517Y963005D01*
X72381Y963155D01*
X72226Y963289D01*
X72054Y963406D01*
X71865Y963504D01*
X71657Y963585D01*
X71432Y963648D01*
X71189Y963693D01*
X70929Y963719D01*
X70651Y963728D01*
X70397Y963720D01*
X70155Y963695D01*
X69925Y963653D01*
X69708Y963595D01*
X69504Y963520D01*
X69312Y963428D01*
X69132Y963319D01*
X68965Y963194D01*
X68813Y963054D01*
X68677Y962900D01*
X68558Y962732D01*
X68456Y962550D01*
X68371Y962355D01*
X68302Y962146D01*
X68251Y961924D01*
X68216Y961688D01*
X66631Y961810D01*
X66689Y962179D01*
X66775Y962526D01*
X66890Y962853D01*
X67033Y963159D01*
X67204Y963444D01*
X67404Y963709D01*
X67631Y963952D01*
X67888Y964175D01*
X68168Y964374D01*
X68467Y964547D01*
X68786Y964693D01*
X69124Y964812D01*
X69481Y964905D01*
X69858Y964972D01*
X70253Y965011D01*
X70669Y965025D01*
X71120Y965011D01*
X71545Y964971D01*
X71945Y964903D01*
X72318Y964809D01*
X72666Y964688D01*
X72988Y964539D01*
X73284Y964364D01*
X73555Y964162D01*
X73796Y963936D01*
X74005Y963688D01*
X74182Y963420D01*
X74326Y963130D01*
X74439Y962818D01*
X74519Y962486D01*
X74568Y962133D01*
X74584Y961758D01*
X74573Y961469D01*
X74542Y961194D01*
X74491Y960933D01*
X74418Y960686D01*
X74325Y960453D01*
X74212Y960233D01*
X74077Y960027D01*
X73922Y959835D01*
X73748Y959658D01*
X73554Y959495D01*
X73342Y959347D01*
X73111Y959215D01*
X72861Y959097D01*
X72593Y958994D01*
X72306Y958906D01*
X72000Y958832D01*
X72000Y958797D01*
X72336Y958750D01*
X72653Y958684D01*
X72952Y958597D01*
X73230Y958491D01*
X73490Y958365D01*
X73731Y958219D01*
X73952Y958054D01*
X74154Y957869D01*
X74335Y957668D01*
X74492Y957454D01*
X74624Y957228D01*
X74733Y956989D01*
X74817Y956737D01*
X74877Y956473D01*
X74913Y956196D01*
X74925Y955907D01*
X74908Y955492D01*
X74857Y955101D01*
X74772Y954735D01*
X74654Y954392D01*
X74501Y954073D01*
X74314Y953779D01*
X74094Y953508D01*
X73839Y953262D01*
X73553Y953042D01*
X73238Y952852D01*
X72894Y952691D01*
X72521Y952559D01*
X72119Y952457D01*
X71688Y952383D01*
X71228Y952340D01*
X70739Y952325D01*
G37*
G36*
X81075Y952500D02*
X79210Y952500D01*
X75768Y961977D01*
X77449Y961977D01*
X79534Y955811D01*
X80138Y953735D01*
X80445Y954760D01*
X80786Y955793D01*
X82941Y961977D01*
X84614Y961977D01*
X81075Y952500D01*
G37*
G36*
X92972Y952500D02*
X91299Y952500D01*
X91299Y964841D01*
X92972Y964841D01*
X92972Y952500D01*
G37*
G36*
X63458Y950205D02*
X62380Y950205D01*
X62573Y950502D01*
X62741Y950795D01*
X62882Y951086D01*
X62998Y951375D01*
X63088Y951660D01*
X63152Y951943D01*
X63191Y952223D01*
X63204Y952500D01*
X62433Y952500D01*
X62433Y954418D01*
X64141Y954418D01*
X64141Y952947D01*
X64130Y952502D01*
X64099Y952095D01*
X64047Y951727D01*
X63974Y951396D01*
X63880Y951089D01*
X63762Y950788D01*
X63621Y950493D01*
X63458Y950205D01*
G37*
G36*
X452879Y914400D02*
X449928Y914400D01*
X449928Y922290D01*
X452538Y922290D01*
X453025Y922275D01*
X453483Y922228D01*
X453913Y922149D01*
X454314Y922039D01*
X454686Y921898D01*
X455030Y921725D01*
X455345Y921521D01*
X455632Y921285D01*
X455887Y921021D01*
X456108Y920730D01*
X456296Y920412D01*
X456449Y920068D01*
X456568Y919697D01*
X456653Y919300D01*
X456704Y918877D01*
X456721Y918426D01*
X456714Y918126D01*
X456691Y917835D01*
X456654Y917554D01*
X456602Y917282D01*
X456535Y917020D01*
X456453Y916767D01*
X456357Y916524D01*
X456245Y916290D01*
X456120Y916068D01*
X455982Y915859D01*
X455832Y915664D01*
X455670Y915481D01*
X455495Y915313D01*
X455307Y915158D01*
X455108Y915016D01*
X454895Y914887D01*
X454673Y914773D01*
X454442Y914674D01*
X454202Y914590D01*
X453955Y914522D01*
X453698Y914469D01*
X453434Y914430D01*
X453161Y914408D01*
X452879Y914400D01*
G37*
%LPC*%
G36*
X452756Y915257D02*
X453177Y915281D01*
X453572Y915352D01*
X453940Y915471D01*
X454282Y915638D01*
X454592Y915849D01*
X454864Y916102D01*
X455098Y916398D01*
X455293Y916735D01*
X455447Y917110D01*
X455558Y917516D01*
X455624Y917955D01*
X455646Y918426D01*
X455633Y918782D01*
X455596Y919116D01*
X455533Y919429D01*
X455445Y919719D01*
X455332Y919988D01*
X455194Y920235D01*
X455031Y920460D01*
X454842Y920664D01*
X454630Y920844D01*
X454396Y921000D01*
X454138Y921133D01*
X453859Y921241D01*
X453557Y921325D01*
X453232Y921385D01*
X452885Y921422D01*
X452515Y921434D01*
X450998Y921434D01*
X450998Y915257D01*
X452756Y915257D01*
G37*
%LPD*%
G36*
X442599Y914400D02*
X441647Y914400D01*
X441647Y922290D01*
X442890Y922290D01*
X447157Y915526D01*
X447107Y916472D01*
X447090Y917116D01*
X447090Y922290D01*
X448053Y922290D01*
X448053Y914400D01*
X446765Y914400D01*
X442543Y921120D01*
X442571Y920577D01*
X442599Y919642D01*
X442599Y914400D01*
G37*
G36*
X436353Y914288D02*
X436049Y914296D01*
X435755Y914319D01*
X435473Y914357D01*
X435201Y914411D01*
X434939Y914480D01*
X434689Y914565D01*
X434449Y914665D01*
X434219Y914781D01*
X434002Y914911D01*
X433798Y915054D01*
X433607Y915211D01*
X433429Y915382D01*
X433264Y915566D01*
X433113Y915764D01*
X432975Y915975D01*
X432850Y916200D01*
X432739Y916437D01*
X432643Y916684D01*
X432562Y916942D01*
X432495Y917209D01*
X432443Y917487D01*
X432406Y917775D01*
X432384Y918073D01*
X432377Y918382D01*
X432393Y918848D01*
X432441Y919288D01*
X432522Y919700D01*
X432634Y920085D01*
X432779Y920444D01*
X432956Y920775D01*
X433166Y921078D01*
X433407Y921355D01*
X433678Y921602D01*
X433975Y921816D01*
X434297Y921997D01*
X434646Y922145D01*
X435021Y922260D01*
X435422Y922342D01*
X435849Y922392D01*
X436302Y922408D01*
X436622Y922401D01*
X436927Y922380D01*
X437216Y922346D01*
X437490Y922297D01*
X437748Y922235D01*
X437991Y922159D01*
X438218Y922069D01*
X438430Y921966D01*
X438629Y921847D01*
X438816Y921711D01*
X438991Y921559D01*
X439154Y921390D01*
X439306Y921205D01*
X439446Y921003D01*
X439574Y920784D01*
X439690Y920549D01*
X438671Y920246D01*
X438487Y920560D01*
X438271Y920827D01*
X438024Y921050D01*
X437744Y921226D01*
X437431Y921361D01*
X437081Y921457D01*
X436696Y921515D01*
X436274Y921534D01*
X435943Y921521D01*
X435631Y921483D01*
X435340Y921418D01*
X435069Y921328D01*
X434818Y921212D01*
X434587Y921070D01*
X434376Y920902D01*
X434186Y920708D01*
X434016Y920491D01*
X433870Y920253D01*
X433745Y919994D01*
X433644Y919714D01*
X433565Y919412D01*
X433508Y919090D01*
X433474Y918746D01*
X433463Y918382D01*
X433475Y918018D01*
X433511Y917673D01*
X433571Y917349D01*
X433655Y917044D01*
X433763Y916759D01*
X433895Y916493D01*
X434051Y916247D01*
X434230Y916021D01*
X434431Y915818D01*
X434651Y915643D01*
X434888Y915494D01*
X435145Y915372D01*
X435419Y915278D01*
X435712Y915210D01*
X436023Y915170D01*
X436353Y915156D01*
X436733Y915171D01*
X437100Y915215D01*
X437454Y915288D01*
X437795Y915391D01*
X438113Y915519D01*
X438400Y915668D01*
X438655Y915838D01*
X438878Y916030D01*
X438878Y917452D01*
X436521Y917452D01*
X436521Y918348D01*
X439864Y918348D01*
X439864Y915626D01*
X439533Y915325D01*
X439166Y915060D01*
X438764Y914831D01*
X438327Y914638D01*
X437862Y914485D01*
X437378Y914376D01*
X436875Y914310D01*
X436353Y914288D01*
G37*
G36*
X71879Y876300D02*
X68928Y876300D01*
X68928Y884190D01*
X71538Y884190D01*
X72025Y884175D01*
X72483Y884128D01*
X72913Y884049D01*
X73314Y883939D01*
X73686Y883798D01*
X74030Y883625D01*
X74345Y883421D01*
X74632Y883185D01*
X74887Y882921D01*
X75108Y882630D01*
X75296Y882312D01*
X75449Y881968D01*
X75568Y881597D01*
X75653Y881200D01*
X75704Y880777D01*
X75721Y880326D01*
X75714Y880026D01*
X75691Y879735D01*
X75654Y879454D01*
X75602Y879182D01*
X75535Y878920D01*
X75453Y878667D01*
X75357Y878424D01*
X75245Y878190D01*
X75120Y877968D01*
X74982Y877759D01*
X74832Y877564D01*
X74670Y877381D01*
X74495Y877213D01*
X74307Y877058D01*
X74108Y876916D01*
X73895Y876787D01*
X73673Y876673D01*
X73442Y876574D01*
X73202Y876490D01*
X72955Y876422D01*
X72698Y876369D01*
X72434Y876330D01*
X72161Y876308D01*
X71879Y876300D01*
G37*
%LPC*%
G36*
X71756Y877157D02*
X72177Y877181D01*
X72572Y877252D01*
X72940Y877371D01*
X73282Y877538D01*
X73592Y877749D01*
X73864Y878002D01*
X74098Y878298D01*
X74293Y878635D01*
X74447Y879010D01*
X74558Y879416D01*
X74624Y879855D01*
X74646Y880326D01*
X74633Y880682D01*
X74596Y881016D01*
X74533Y881329D01*
X74445Y881619D01*
X74332Y881888D01*
X74194Y882135D01*
X74031Y882360D01*
X73842Y882564D01*
X73630Y882744D01*
X73396Y882900D01*
X73138Y883033D01*
X72859Y883141D01*
X72557Y883225D01*
X72232Y883285D01*
X71885Y883322D01*
X71515Y883334D01*
X69998Y883334D01*
X69998Y877157D01*
X71756Y877157D01*
G37*
%LPD*%
G36*
X61599Y876300D02*
X60647Y876300D01*
X60647Y884190D01*
X61890Y884190D01*
X66157Y877426D01*
X66107Y878372D01*
X66090Y879016D01*
X66090Y884190D01*
X67053Y884190D01*
X67053Y876300D01*
X65765Y876300D01*
X61543Y883020D01*
X61571Y882477D01*
X61599Y881542D01*
X61599Y876300D01*
G37*
G36*
X55353Y876188D02*
X55049Y876196D01*
X54755Y876219D01*
X54473Y876257D01*
X54201Y876311D01*
X53939Y876380D01*
X53689Y876465D01*
X53449Y876565D01*
X53219Y876681D01*
X53002Y876811D01*
X52798Y876954D01*
X52607Y877111D01*
X52429Y877282D01*
X52264Y877466D01*
X52113Y877664D01*
X51975Y877875D01*
X51850Y878100D01*
X51739Y878337D01*
X51643Y878584D01*
X51562Y878842D01*
X51495Y879109D01*
X51443Y879387D01*
X51406Y879675D01*
X51384Y879973D01*
X51377Y880282D01*
X51393Y880748D01*
X51441Y881188D01*
X51522Y881600D01*
X51634Y881985D01*
X51779Y882344D01*
X51956Y882675D01*
X52166Y882978D01*
X52407Y883255D01*
X52678Y883502D01*
X52975Y883716D01*
X53297Y883897D01*
X53646Y884045D01*
X54021Y884160D01*
X54422Y884242D01*
X54849Y884292D01*
X55302Y884308D01*
X55622Y884301D01*
X55927Y884280D01*
X56216Y884246D01*
X56490Y884197D01*
X56748Y884135D01*
X56991Y884059D01*
X57218Y883969D01*
X57430Y883866D01*
X57629Y883747D01*
X57816Y883611D01*
X57991Y883459D01*
X58154Y883290D01*
X58306Y883105D01*
X58446Y882903D01*
X58574Y882684D01*
X58690Y882449D01*
X57671Y882146D01*
X57487Y882460D01*
X57271Y882727D01*
X57024Y882950D01*
X56744Y883126D01*
X56431Y883261D01*
X56081Y883357D01*
X55696Y883415D01*
X55274Y883434D01*
X54943Y883421D01*
X54631Y883383D01*
X54340Y883318D01*
X54069Y883228D01*
X53818Y883112D01*
X53587Y882970D01*
X53376Y882802D01*
X53186Y882608D01*
X53016Y882391D01*
X52870Y882153D01*
X52745Y881894D01*
X52644Y881614D01*
X52565Y881312D01*
X52508Y880990D01*
X52474Y880646D01*
X52463Y880282D01*
X52475Y879918D01*
X52511Y879573D01*
X52571Y879249D01*
X52655Y878944D01*
X52763Y878659D01*
X52895Y878393D01*
X53051Y878147D01*
X53230Y877921D01*
X53431Y877718D01*
X53651Y877543D01*
X53888Y877394D01*
X54145Y877272D01*
X54419Y877178D01*
X54712Y877110D01*
X55023Y877070D01*
X55353Y877056D01*
X55733Y877071D01*
X56100Y877115D01*
X56454Y877188D01*
X56795Y877291D01*
X57113Y877419D01*
X57400Y877568D01*
X57655Y877738D01*
X57878Y877930D01*
X57878Y879352D01*
X55521Y879352D01*
X55521Y880248D01*
X58864Y880248D01*
X58864Y877526D01*
X58533Y877225D01*
X58166Y876960D01*
X57764Y876731D01*
X57327Y876538D01*
X56862Y876385D01*
X56378Y876276D01*
X55875Y876210D01*
X55353Y876188D01*
G37*
G36*
X173479Y660400D02*
X170528Y660400D01*
X170528Y668290D01*
X173138Y668290D01*
X173625Y668275D01*
X174083Y668228D01*
X174513Y668149D01*
X174914Y668039D01*
X175286Y667898D01*
X175630Y667725D01*
X175945Y667521D01*
X176232Y667285D01*
X176487Y667021D01*
X176708Y666730D01*
X176896Y666412D01*
X177049Y666068D01*
X177168Y665697D01*
X177253Y665300D01*
X177304Y664877D01*
X177321Y664426D01*
X177314Y664126D01*
X177291Y663835D01*
X177254Y663554D01*
X177202Y663282D01*
X177135Y663020D01*
X177053Y662767D01*
X176957Y662524D01*
X176845Y662290D01*
X176720Y662068D01*
X176582Y661859D01*
X176432Y661664D01*
X176270Y661481D01*
X176095Y661313D01*
X175907Y661158D01*
X175708Y661016D01*
X175495Y660887D01*
X175273Y660773D01*
X175042Y660674D01*
X174802Y660590D01*
X174555Y660522D01*
X174298Y660469D01*
X174034Y660430D01*
X173761Y660408D01*
X173479Y660400D01*
G37*
%LPC*%
G36*
X173356Y661257D02*
X173777Y661281D01*
X174172Y661352D01*
X174540Y661471D01*
X174882Y661638D01*
X175192Y661849D01*
X175464Y662102D01*
X175698Y662398D01*
X175893Y662735D01*
X176047Y663110D01*
X176158Y663516D01*
X176224Y663955D01*
X176246Y664426D01*
X176233Y664782D01*
X176196Y665116D01*
X176133Y665429D01*
X176045Y665719D01*
X175932Y665988D01*
X175794Y666235D01*
X175631Y666460D01*
X175442Y666664D01*
X175230Y666844D01*
X174996Y667000D01*
X174738Y667133D01*
X174459Y667241D01*
X174157Y667325D01*
X173832Y667385D01*
X173485Y667422D01*
X173115Y667434D01*
X171598Y667434D01*
X171598Y661257D01*
X173356Y661257D01*
G37*
%LPD*%
G36*
X163199Y660400D02*
X162247Y660400D01*
X162247Y668290D01*
X163490Y668290D01*
X167757Y661526D01*
X167707Y662472D01*
X167690Y663116D01*
X167690Y668290D01*
X168653Y668290D01*
X168653Y660400D01*
X167365Y660400D01*
X163143Y667120D01*
X163171Y666577D01*
X163199Y665642D01*
X163199Y660400D01*
G37*
G36*
X156953Y660288D02*
X156649Y660296D01*
X156355Y660319D01*
X156073Y660357D01*
X155801Y660411D01*
X155539Y660480D01*
X155289Y660565D01*
X155049Y660665D01*
X154819Y660781D01*
X154602Y660911D01*
X154398Y661054D01*
X154207Y661211D01*
X154029Y661382D01*
X153864Y661566D01*
X153713Y661764D01*
X153575Y661975D01*
X153450Y662200D01*
X153339Y662437D01*
X153243Y662684D01*
X153162Y662942D01*
X153095Y663209D01*
X153043Y663487D01*
X153006Y663775D01*
X152984Y664073D01*
X152977Y664382D01*
X152993Y664848D01*
X153041Y665288D01*
X153122Y665700D01*
X153234Y666085D01*
X153379Y666444D01*
X153556Y666775D01*
X153766Y667078D01*
X154007Y667355D01*
X154278Y667602D01*
X154575Y667816D01*
X154897Y667997D01*
X155246Y668145D01*
X155621Y668260D01*
X156022Y668342D01*
X156449Y668392D01*
X156902Y668408D01*
X157222Y668401D01*
X157527Y668380D01*
X157816Y668346D01*
X158090Y668297D01*
X158348Y668235D01*
X158591Y668159D01*
X158818Y668069D01*
X159030Y667966D01*
X159229Y667847D01*
X159416Y667711D01*
X159591Y667559D01*
X159754Y667390D01*
X159906Y667205D01*
X160046Y667003D01*
X160174Y666784D01*
X160290Y666549D01*
X159271Y666246D01*
X159087Y666560D01*
X158871Y666827D01*
X158624Y667050D01*
X158344Y667226D01*
X158031Y667361D01*
X157681Y667457D01*
X157296Y667515D01*
X156874Y667534D01*
X156543Y667521D01*
X156231Y667483D01*
X155940Y667418D01*
X155669Y667328D01*
X155418Y667212D01*
X155187Y667070D01*
X154976Y666902D01*
X154786Y666708D01*
X154616Y666491D01*
X154470Y666253D01*
X154345Y665994D01*
X154244Y665714D01*
X154165Y665412D01*
X154108Y665090D01*
X154074Y664746D01*
X154063Y664382D01*
X154075Y664018D01*
X154111Y663673D01*
X154171Y663349D01*
X154255Y663044D01*
X154363Y662759D01*
X154495Y662493D01*
X154651Y662247D01*
X154830Y662021D01*
X155031Y661818D01*
X155251Y661643D01*
X155488Y661494D01*
X155745Y661372D01*
X156019Y661278D01*
X156312Y661210D01*
X156623Y661170D01*
X156953Y661156D01*
X157333Y661171D01*
X157700Y661215D01*
X158054Y661288D01*
X158395Y661391D01*
X158713Y661519D01*
X159000Y661668D01*
X159255Y661838D01*
X159478Y662030D01*
X159478Y663452D01*
X157121Y663452D01*
X157121Y664348D01*
X160464Y664348D01*
X160464Y661626D01*
X160133Y661325D01*
X159766Y661060D01*
X159364Y660831D01*
X158927Y660638D01*
X158462Y660485D01*
X157978Y660376D01*
X157475Y660310D01*
X156953Y660288D01*
G37*
G36*
X234284Y647560D02*
X233871Y647580D01*
X233486Y647641D01*
X233126Y647742D01*
X232794Y647884D01*
X232487Y648066D01*
X232207Y648289D01*
X231954Y648552D01*
X231727Y648856D01*
X231527Y649198D01*
X231353Y649578D01*
X231207Y649995D01*
X231086Y650449D01*
X230993Y650940D01*
X230926Y651469D01*
X230886Y652035D01*
X230873Y652638D01*
X230886Y653253D01*
X230925Y653829D01*
X230990Y654365D01*
X231080Y654861D01*
X231197Y655318D01*
X231340Y655734D01*
X231508Y656111D01*
X231703Y656448D01*
X231925Y656745D01*
X232178Y657002D01*
X232461Y657220D01*
X232773Y657398D01*
X233116Y657537D01*
X233489Y657636D01*
X233892Y657696D01*
X234326Y657715D01*
X234747Y657695D01*
X235141Y657635D01*
X235505Y657535D01*
X235841Y657395D01*
X236149Y657215D01*
X236427Y656994D01*
X236678Y656734D01*
X236900Y656434D01*
X237094Y656094D01*
X237263Y655716D01*
X237405Y655299D01*
X237522Y654844D01*
X237613Y654350D01*
X237678Y653818D01*
X237717Y653247D01*
X237730Y652638D01*
X237716Y652038D01*
X237675Y651475D01*
X237607Y650948D01*
X237512Y650458D01*
X237389Y650004D01*
X237239Y649587D01*
X237062Y649207D01*
X236858Y648863D01*
X236627Y648557D01*
X236370Y648293D01*
X236087Y648069D01*
X235778Y647886D01*
X235443Y647743D01*
X235083Y647641D01*
X234696Y647580D01*
X234284Y647560D01*
G37*
%LPC*%
G36*
X234298Y648589D02*
X234567Y648605D01*
X234817Y648652D01*
X235049Y648729D01*
X235262Y648838D01*
X235457Y648978D01*
X235633Y649149D01*
X235791Y649351D01*
X235930Y649584D01*
X236051Y649849D01*
X236156Y650148D01*
X236245Y650480D01*
X236318Y650845D01*
X236375Y651243D01*
X236415Y651675D01*
X236440Y652140D01*
X236448Y652638D01*
X236440Y653153D01*
X236417Y653632D01*
X236378Y654074D01*
X236324Y654480D01*
X236255Y654848D01*
X236170Y655180D01*
X236070Y655475D01*
X235954Y655733D01*
X235821Y655958D01*
X235667Y656153D01*
X235494Y656318D01*
X235300Y656453D01*
X235087Y656558D01*
X234853Y656633D01*
X234599Y656678D01*
X234326Y656693D01*
X234045Y656678D01*
X233785Y656634D01*
X233546Y656560D01*
X233327Y656456D01*
X233128Y656324D01*
X232950Y656161D01*
X232792Y655969D01*
X232655Y655747D01*
X232536Y655492D01*
X232433Y655198D01*
X232346Y654867D01*
X232274Y654497D01*
X232219Y654089D01*
X232179Y653644D01*
X232155Y653160D01*
X232147Y652638D01*
X232156Y652130D01*
X232180Y651658D01*
X232220Y651220D01*
X232276Y650818D01*
X232349Y650452D01*
X232437Y650120D01*
X232542Y649824D01*
X232662Y649563D01*
X232800Y649335D01*
X232958Y649137D01*
X233134Y648970D01*
X233329Y648833D01*
X233542Y648726D01*
X233775Y648650D01*
X234027Y648605D01*
X234298Y648589D01*
G37*
%LPD*%
G36*
X242252Y647560D02*
X241840Y647580D01*
X241454Y647641D01*
X241095Y647742D01*
X240762Y647884D01*
X240456Y648066D01*
X240176Y648289D01*
X239923Y648552D01*
X239696Y648856D01*
X239496Y649198D01*
X239322Y649578D01*
X239175Y649995D01*
X239055Y650449D01*
X238962Y650940D01*
X238895Y651469D01*
X238855Y652035D01*
X238842Y652638D01*
X238855Y653253D01*
X238893Y653829D01*
X238958Y654365D01*
X239049Y654861D01*
X239166Y655318D01*
X239308Y655734D01*
X239477Y656111D01*
X239672Y656448D01*
X239894Y656745D01*
X240147Y657002D01*
X240429Y657220D01*
X240742Y657398D01*
X241085Y657537D01*
X241458Y657636D01*
X241861Y657696D01*
X242294Y657715D01*
X242716Y657695D01*
X243109Y657635D01*
X243474Y657535D01*
X243810Y657395D01*
X244117Y657215D01*
X244396Y656994D01*
X244647Y656734D01*
X244868Y656434D01*
X245063Y656094D01*
X245231Y655716D01*
X245374Y655299D01*
X245491Y654844D01*
X245582Y654350D01*
X245646Y653818D01*
X245685Y653247D01*
X245698Y652638D01*
X245685Y652038D01*
X245644Y651475D01*
X245576Y650948D01*
X245480Y650458D01*
X245358Y650004D01*
X245208Y649587D01*
X245031Y649207D01*
X244826Y648863D01*
X244595Y648557D01*
X244338Y648293D01*
X244056Y648069D01*
X243747Y647886D01*
X243412Y647743D01*
X243051Y647641D01*
X242665Y647580D01*
X242252Y647560D01*
G37*
%LPC*%
G36*
X242266Y648589D02*
X242536Y648605D01*
X242786Y648652D01*
X243018Y648729D01*
X243231Y648838D01*
X243426Y648978D01*
X243602Y649149D01*
X243759Y649351D01*
X243898Y649584D01*
X244020Y649849D01*
X244125Y650148D01*
X244214Y650480D01*
X244287Y650845D01*
X244344Y651243D01*
X244384Y651675D01*
X244408Y652140D01*
X244417Y652638D01*
X244409Y653153D01*
X244386Y653632D01*
X244347Y654074D01*
X244293Y654480D01*
X244224Y654848D01*
X244139Y655180D01*
X244039Y655475D01*
X243923Y655733D01*
X243789Y655958D01*
X243636Y656153D01*
X243462Y656318D01*
X243269Y656453D01*
X243055Y656558D01*
X242822Y656633D01*
X242568Y656678D01*
X242294Y656693D01*
X242014Y656678D01*
X241754Y656634D01*
X241515Y656560D01*
X241296Y656456D01*
X241097Y656324D01*
X240919Y656161D01*
X240761Y655969D01*
X240624Y655747D01*
X240505Y655492D01*
X240402Y655198D01*
X240315Y654867D01*
X240243Y654497D01*
X240188Y654089D01*
X240148Y653644D01*
X240124Y653160D01*
X240116Y652638D01*
X240124Y652130D01*
X240148Y651658D01*
X240189Y651220D01*
X240245Y650818D01*
X240317Y650452D01*
X240406Y650120D01*
X240510Y649824D01*
X240631Y649563D01*
X240769Y649335D01*
X240926Y649137D01*
X241102Y648970D01*
X241297Y648833D01*
X241511Y648726D01*
X241744Y648650D01*
X241996Y648605D01*
X242266Y648589D01*
G37*
%LPD*%
G36*
X215296Y647700D02*
X213958Y647700D01*
X213958Y657568D01*
X218111Y657568D01*
X218514Y657556D01*
X218894Y657520D01*
X219251Y657459D01*
X219584Y657374D01*
X219893Y657265D01*
X220179Y657131D01*
X220442Y656973D01*
X220682Y656791D01*
X220895Y656587D01*
X221080Y656362D01*
X221236Y656118D01*
X221364Y655854D01*
X221464Y655570D01*
X221535Y655266D01*
X221578Y654942D01*
X221592Y654599D01*
X221578Y654258D01*
X221535Y653934D01*
X221463Y653629D01*
X221364Y653342D01*
X221235Y653072D01*
X221078Y652821D01*
X220892Y652587D01*
X220678Y652372D01*
X220439Y652178D01*
X220180Y652010D01*
X219900Y651868D01*
X219600Y651752D01*
X219280Y651661D01*
X218939Y651597D01*
X218577Y651558D01*
X218195Y651545D01*
X215296Y651545D01*
X215296Y647700D01*
G37*
%LPC*%
G36*
X218006Y652603D02*
X218277Y652610D01*
X218531Y652634D01*
X218768Y652672D01*
X218987Y652727D01*
X219188Y652796D01*
X219372Y652881D01*
X219538Y652982D01*
X219687Y653098D01*
X219818Y653230D01*
X219932Y653377D01*
X220028Y653539D01*
X220107Y653718D01*
X220168Y653911D01*
X220212Y654120D01*
X220239Y654345D01*
X220247Y654585D01*
X220238Y654816D01*
X220211Y655033D01*
X220167Y655235D01*
X220104Y655421D01*
X220023Y655593D01*
X219924Y655750D01*
X219808Y655892D01*
X219673Y656019D01*
X219520Y656131D01*
X219350Y656228D01*
X219161Y656310D01*
X218955Y656377D01*
X218731Y656430D01*
X218488Y656467D01*
X218228Y656489D01*
X217950Y656497D01*
X215296Y656497D01*
X215296Y652603D01*
X218006Y652603D01*
G37*
%LPD*%
G36*
X226504Y647560D02*
X226100Y647579D01*
X225720Y647637D01*
X225364Y647734D01*
X225033Y647870D01*
X224727Y648044D01*
X224445Y648257D01*
X224187Y648509D01*
X223955Y648800D01*
X223748Y649127D01*
X223569Y649490D01*
X223417Y649888D01*
X223293Y650321D01*
X223196Y650790D01*
X223127Y651293D01*
X223086Y651832D01*
X223072Y652407D01*
X223086Y653029D01*
X223129Y653614D01*
X223201Y654162D01*
X223302Y654672D01*
X223431Y655146D01*
X223588Y655582D01*
X223775Y655981D01*
X223990Y656343D01*
X224231Y656664D01*
X224497Y656943D01*
X224787Y657179D01*
X225101Y657372D01*
X225440Y657522D01*
X225803Y657630D01*
X226190Y657694D01*
X226602Y657715D01*
X226875Y657708D01*
X227135Y657684D01*
X227382Y657645D01*
X227616Y657590D01*
X227837Y657519D01*
X228045Y657433D01*
X228241Y657331D01*
X228423Y657213D01*
X228593Y657079D01*
X228749Y656930D01*
X228893Y656765D01*
X229024Y656585D01*
X229141Y656388D01*
X229246Y656176D01*
X229338Y655949D01*
X229418Y655705D01*
X228213Y655488D01*
X228106Y655771D01*
X227972Y656015D01*
X227810Y656222D01*
X227621Y656392D01*
X227404Y656523D01*
X227160Y656618D01*
X226888Y656674D01*
X226588Y656693D01*
X226326Y656677D01*
X226079Y656630D01*
X225848Y656552D01*
X225631Y656442D01*
X225430Y656300D01*
X225244Y656128D01*
X225073Y655923D01*
X224918Y655688D01*
X224779Y655422D01*
X224659Y655129D01*
X224557Y654807D01*
X224474Y654458D01*
X224409Y654080D01*
X224363Y653674D01*
X224335Y653240D01*
X224326Y652778D01*
X224515Y653077D01*
X224739Y653339D01*
X224998Y653562D01*
X225292Y653748D01*
X225615Y653893D01*
X225961Y653997D01*
X226330Y654060D01*
X226721Y654080D01*
X227054Y654067D01*
X227369Y654027D01*
X227666Y653960D01*
X227946Y653867D01*
X228208Y653747D01*
X228453Y653600D01*
X228679Y653426D01*
X228889Y653226D01*
X229077Y653003D01*
X229240Y652762D01*
X229377Y652502D01*
X229490Y652224D01*
X229578Y651928D01*
X229641Y651613D01*
X229678Y651280D01*
X229691Y650929D01*
X229677Y650549D01*
X229638Y650189D01*
X229572Y649850D01*
X229479Y649531D01*
X229360Y649234D01*
X229214Y648956D01*
X229042Y648700D01*
X228843Y648463D01*
X228621Y648252D01*
X228379Y648068D01*
X228117Y647913D01*
X227835Y647786D01*
X227532Y647687D01*
X227210Y647616D01*
X226867Y647574D01*
X226504Y647560D01*
G37*
%LPC*%
G36*
X226462Y648575D02*
X226683Y648585D01*
X226893Y648614D01*
X227090Y648662D01*
X227274Y648729D01*
X227447Y648815D01*
X227607Y648920D01*
X227755Y649045D01*
X227891Y649188D01*
X228012Y649349D01*
X228117Y649523D01*
X228207Y649712D01*
X228279Y649916D01*
X228336Y650134D01*
X228377Y650366D01*
X228401Y650612D01*
X228409Y650873D01*
X228401Y651133D01*
X228376Y651378D01*
X228335Y651607D01*
X228278Y651822D01*
X228204Y652021D01*
X228114Y652204D01*
X228007Y652373D01*
X227884Y652526D01*
X227746Y652662D01*
X227595Y652780D01*
X227432Y652880D01*
X227255Y652962D01*
X227066Y653025D01*
X226863Y653071D01*
X226648Y653098D01*
X226420Y653107D01*
X226205Y653099D01*
X226000Y653075D01*
X225806Y653035D01*
X225622Y652978D01*
X225450Y652906D01*
X225287Y652817D01*
X225136Y652713D01*
X224995Y652592D01*
X224867Y652457D01*
X224757Y652310D01*
X224664Y652151D01*
X224588Y651980D01*
X224528Y651797D01*
X224486Y651601D01*
X224460Y651394D01*
X224452Y651174D01*
X224461Y650895D01*
X224487Y650629D01*
X224531Y650376D01*
X224593Y650136D01*
X224672Y649908D01*
X224769Y649694D01*
X224884Y649492D01*
X225016Y649304D01*
X225162Y649133D01*
X225318Y648985D01*
X225483Y648860D01*
X225659Y648758D01*
X225845Y648678D01*
X226041Y648621D01*
X226246Y648587D01*
X226462Y648575D01*
G37*
%LPD*%
G36*
X192867Y647700D02*
X191677Y647700D01*
X191677Y657568D01*
X193435Y657568D01*
X196061Y650726D01*
X196331Y649840D01*
X196502Y649157D01*
X196589Y649510D01*
X196737Y650008D01*
X196979Y650726D01*
X199556Y657568D01*
X201272Y657568D01*
X201272Y647700D01*
X200067Y647700D01*
X200067Y654284D01*
X200083Y655355D01*
X200130Y656385D01*
X199805Y655268D01*
X199514Y654424D01*
X196964Y647700D01*
X196026Y647700D01*
X193442Y654424D01*
X193049Y655614D01*
X192818Y656385D01*
X192839Y655607D01*
X192867Y654284D01*
X192867Y647700D01*
G37*
G36*
X207977Y647560D02*
X207611Y647570D01*
X207257Y647599D01*
X206915Y647647D01*
X206586Y647715D01*
X206270Y647802D01*
X205966Y647909D01*
X205675Y648034D01*
X205397Y648180D01*
X205132Y648343D01*
X204884Y648523D01*
X204653Y648719D01*
X204437Y648933D01*
X204238Y649162D01*
X204054Y649409D01*
X203888Y649672D01*
X203737Y649952D01*
X203603Y650246D01*
X203487Y650554D01*
X203389Y650875D01*
X203309Y651210D01*
X203246Y651557D01*
X203202Y651918D01*
X203175Y652292D01*
X203166Y652680D01*
X203186Y653254D01*
X203246Y653796D01*
X203345Y654306D01*
X203485Y654784D01*
X203664Y655231D01*
X203883Y655645D01*
X204142Y656027D01*
X204441Y656378D01*
X204775Y656691D01*
X205139Y656963D01*
X205534Y657193D01*
X205960Y657381D01*
X206417Y657527D01*
X206904Y657632D01*
X207422Y657695D01*
X207970Y657715D01*
X208356Y657706D01*
X208726Y657677D01*
X209079Y657629D01*
X209417Y657561D01*
X209738Y657475D01*
X210043Y657369D01*
X210331Y657244D01*
X210604Y657099D01*
X210860Y656936D01*
X211098Y656754D01*
X211318Y656553D01*
X211521Y656334D01*
X211707Y656096D01*
X211875Y655840D01*
X212026Y655565D01*
X212159Y655271D01*
X210891Y654851D01*
X210799Y655060D01*
X210693Y655256D01*
X210575Y655440D01*
X210444Y655611D01*
X210299Y655769D01*
X210142Y655915D01*
X209971Y656047D01*
X209788Y656168D01*
X209594Y656274D01*
X209390Y656367D01*
X209178Y656445D01*
X208957Y656509D01*
X208727Y656559D01*
X208489Y656594D01*
X208241Y656616D01*
X207984Y656623D01*
X207586Y656606D01*
X207211Y656557D01*
X206858Y656475D01*
X206528Y656359D01*
X206220Y656211D01*
X205936Y656030D01*
X205674Y655816D01*
X205435Y655569D01*
X205222Y655293D01*
X205037Y654993D01*
X204880Y654668D01*
X204752Y654319D01*
X204653Y653946D01*
X204582Y653548D01*
X204539Y653126D01*
X204525Y652680D01*
X204539Y652237D01*
X204584Y651817D01*
X204658Y651419D01*
X204762Y651043D01*
X204895Y650690D01*
X205058Y650359D01*
X205251Y650049D01*
X205474Y649763D01*
X205721Y649504D01*
X205990Y649280D01*
X206279Y649090D01*
X206590Y648935D01*
X206921Y648815D01*
X207273Y648728D01*
X207647Y648677D01*
X208041Y648660D01*
X208296Y648668D01*
X208543Y648692D01*
X208782Y648732D01*
X209013Y648788D01*
X209236Y648860D01*
X209451Y648948D01*
X209657Y649052D01*
X209856Y649173D01*
X210047Y649309D01*
X210230Y649461D01*
X210404Y649629D01*
X210571Y649814D01*
X210880Y650231D01*
X211157Y650712D01*
X212250Y650165D01*
X212090Y649856D01*
X211914Y649566D01*
X211723Y649295D01*
X211517Y649043D01*
X211295Y648810D01*
X211058Y648596D01*
X210805Y648401D01*
X210537Y648225D01*
X210256Y648069D01*
X209964Y647934D01*
X209660Y647820D01*
X209346Y647726D01*
X209020Y647654D01*
X208684Y647602D01*
X208336Y647570D01*
X207977Y647560D01*
G37*
G36*
X253506Y647700D02*
X246971Y647700D01*
X246971Y648589D01*
X247160Y648987D01*
X247368Y649361D01*
X247596Y649710D01*
X247843Y650036D01*
X248371Y650633D01*
X248925Y651170D01*
X249490Y651660D01*
X250050Y652112D01*
X250579Y652547D01*
X251055Y652981D01*
X251268Y653201D01*
X251460Y653426D01*
X251630Y653656D01*
X251779Y653891D01*
X251901Y654137D01*
X251987Y654399D01*
X252039Y654677D01*
X252056Y654970D01*
X252049Y655167D01*
X252026Y655353D01*
X251989Y655528D01*
X251937Y655691D01*
X251870Y655843D01*
X251788Y655984D01*
X251692Y656113D01*
X251580Y656231D01*
X251455Y656336D01*
X251319Y656427D01*
X251170Y656504D01*
X251011Y656567D01*
X250840Y656616D01*
X250657Y656651D01*
X250462Y656672D01*
X250256Y656679D01*
X250059Y656672D01*
X249871Y656651D01*
X249692Y656617D01*
X249522Y656569D01*
X249360Y656508D01*
X249208Y656433D01*
X248929Y656241D01*
X248805Y656126D01*
X248695Y656000D01*
X248598Y655863D01*
X248515Y655715D01*
X248445Y655556D01*
X248389Y655386D01*
X248346Y655204D01*
X248316Y655012D01*
X247027Y655131D01*
X247074Y655419D01*
X247143Y655693D01*
X247234Y655951D01*
X247349Y656194D01*
X247486Y656422D01*
X247645Y656635D01*
X247828Y656832D01*
X248032Y657015D01*
X248256Y657179D01*
X248496Y657321D01*
X248751Y657442D01*
X249021Y657540D01*
X249307Y657617D01*
X249608Y657672D01*
X249924Y657704D01*
X250256Y657715D01*
X250618Y657704D01*
X250959Y657671D01*
X251278Y657616D01*
X251576Y657539D01*
X251851Y657440D01*
X252106Y657319D01*
X252339Y657177D01*
X252550Y657012D01*
X252738Y656826D01*
X252901Y656623D01*
X253039Y656400D01*
X253151Y656160D01*
X253239Y655901D01*
X253302Y655623D01*
X253339Y655327D01*
X253352Y655012D01*
X253335Y654725D01*
X253286Y654439D01*
X253204Y654154D01*
X253089Y653870D01*
X252942Y653587D01*
X252763Y653303D01*
X252551Y653019D01*
X252308Y652736D01*
X251990Y652413D01*
X251554Y652013D01*
X250999Y651534D01*
X250326Y650978D01*
X249603Y650352D01*
X249303Y650063D01*
X249045Y649791D01*
X248823Y649529D01*
X248635Y649271D01*
X248480Y649019D01*
X248358Y648772D01*
X253506Y648772D01*
X253506Y647700D01*
G37*
G36*
X120825Y785369D02*
X120055Y785386D01*
X119335Y785434D01*
X118665Y785515D01*
X118044Y785629D01*
X117474Y785775D01*
X116953Y785953D01*
X116482Y786164D01*
X116061Y786407D01*
X115689Y786686D01*
X115367Y787002D01*
X115095Y787355D01*
X114872Y787746D01*
X114698Y788175D01*
X114630Y788404D01*
X114574Y788642D01*
X114531Y788889D01*
X114500Y789146D01*
X114482Y789412D01*
X114475Y789687D01*
X114482Y789956D01*
X114500Y790215D01*
X114532Y790465D01*
X114575Y790706D01*
X114632Y790939D01*
X114701Y791162D01*
X114876Y791583D01*
X115101Y791967D01*
X115377Y792316D01*
X115702Y792629D01*
X116078Y792906D01*
X116503Y793149D01*
X116976Y793360D01*
X117497Y793539D01*
X118066Y793685D01*
X118684Y793798D01*
X119349Y793879D01*
X120063Y793928D01*
X120825Y793944D01*
X121575Y793927D01*
X122280Y793876D01*
X122938Y793791D01*
X123551Y793671D01*
X124119Y793518D01*
X124640Y793331D01*
X125116Y793109D01*
X125546Y792854D01*
X125928Y792565D01*
X126259Y792244D01*
X126539Y791890D01*
X126768Y791504D01*
X126946Y791085D01*
X127073Y790634D01*
X127118Y790396D01*
X127150Y790151D01*
X127169Y789897D01*
X127175Y789635D01*
X127169Y789373D01*
X127150Y789119D01*
X127118Y788874D01*
X127074Y788637D01*
X126947Y788188D01*
X126770Y787771D01*
X126542Y787388D01*
X126264Y787038D01*
X125935Y786722D01*
X125555Y786438D01*
X125127Y786188D01*
X124652Y785970D01*
X124130Y785787D01*
X123562Y785637D01*
X122948Y785520D01*
X122287Y785436D01*
X121579Y785386D01*
X120825Y785369D01*
G37*
%LPC*%
G36*
X120825Y786963D02*
X121460Y786974D01*
X122051Y787004D01*
X122598Y787054D01*
X123100Y787124D01*
X123559Y787215D01*
X123973Y787326D01*
X124344Y787456D01*
X124670Y787607D01*
X124956Y787780D01*
X125203Y787976D01*
X125412Y788197D01*
X125583Y788440D01*
X125716Y788708D01*
X125812Y788999D01*
X125869Y789314D01*
X125888Y789652D01*
X125868Y789989D01*
X125810Y790302D01*
X125713Y790592D01*
X125577Y790859D01*
X125402Y791102D01*
X125188Y791323D01*
X124935Y791519D01*
X124644Y791693D01*
X124312Y791845D01*
X123939Y791977D01*
X123524Y792088D01*
X123067Y792179D01*
X122569Y792250D01*
X122030Y792301D01*
X121448Y792331D01*
X120825Y792341D01*
X120180Y792332D01*
X119582Y792303D01*
X119029Y792254D01*
X118522Y792187D01*
X118061Y792100D01*
X117646Y791994D01*
X117277Y791868D01*
X116954Y791724D01*
X116673Y791557D01*
X116429Y791365D01*
X116223Y791148D01*
X116054Y790906D01*
X115923Y790639D01*
X115829Y790347D01*
X115773Y790030D01*
X115754Y789687D01*
X115773Y789337D01*
X115828Y789012D01*
X115920Y788712D01*
X116050Y788438D01*
X116216Y788190D01*
X116419Y787967D01*
X116659Y787770D01*
X116936Y787598D01*
X117256Y787450D01*
X117623Y787321D01*
X118038Y787212D01*
X118500Y787122D01*
X119010Y787053D01*
X119567Y787003D01*
X120172Y786973D01*
X120825Y786963D01*
G37*
%LPD*%
G36*
X127000Y796109D02*
X114659Y796109D01*
X114659Y797782D01*
X120843Y797782D01*
X114659Y803729D01*
X114659Y805700D01*
X120019Y800444D01*
X127000Y806400D01*
X127000Y804324D01*
X121044Y799393D01*
X122270Y797782D01*
X127000Y797782D01*
X127000Y796109D01*
G37*
G36*
X127000Y776066D02*
X125660Y776066D01*
X125660Y779211D01*
X116166Y779211D01*
X118154Y776425D01*
X116665Y776425D01*
X114659Y779342D01*
X114659Y780796D01*
X125660Y780796D01*
X125660Y783800D01*
X127000Y783800D01*
X127000Y776066D01*
G37*
G36*
X120825Y645669D02*
X120055Y645686D01*
X119335Y645734D01*
X118665Y645815D01*
X118044Y645929D01*
X117474Y646075D01*
X116953Y646253D01*
X116482Y646464D01*
X116061Y646707D01*
X115689Y646986D01*
X115367Y647302D01*
X115095Y647655D01*
X114872Y648046D01*
X114698Y648475D01*
X114630Y648704D01*
X114574Y648942D01*
X114531Y649189D01*
X114500Y649446D01*
X114482Y649712D01*
X114475Y649987D01*
X114482Y650256D01*
X114500Y650515D01*
X114532Y650765D01*
X114575Y651006D01*
X114632Y651239D01*
X114701Y651462D01*
X114876Y651883D01*
X115101Y652267D01*
X115377Y652616D01*
X115702Y652929D01*
X116078Y653206D01*
X116503Y653449D01*
X116976Y653660D01*
X117497Y653839D01*
X118066Y653985D01*
X118684Y654098D01*
X119349Y654179D01*
X120063Y654228D01*
X120825Y654244D01*
X121575Y654227D01*
X122280Y654176D01*
X122938Y654091D01*
X123551Y653971D01*
X124119Y653818D01*
X124640Y653631D01*
X125116Y653409D01*
X125546Y653154D01*
X125928Y652865D01*
X126259Y652544D01*
X126539Y652190D01*
X126768Y651804D01*
X126946Y651385D01*
X127073Y650934D01*
X127118Y650696D01*
X127150Y650451D01*
X127169Y650197D01*
X127175Y649935D01*
X127169Y649673D01*
X127150Y649419D01*
X127118Y649174D01*
X127074Y648937D01*
X126947Y648488D01*
X126770Y648071D01*
X126542Y647688D01*
X126264Y647338D01*
X125935Y647022D01*
X125555Y646738D01*
X125127Y646488D01*
X124652Y646270D01*
X124130Y646087D01*
X123562Y645937D01*
X122948Y645820D01*
X122287Y645736D01*
X121579Y645686D01*
X120825Y645669D01*
G37*
%LPC*%
G36*
X120825Y647263D02*
X121460Y647274D01*
X122051Y647304D01*
X122598Y647354D01*
X123100Y647424D01*
X123559Y647515D01*
X123973Y647626D01*
X124344Y647756D01*
X124670Y647907D01*
X124956Y648080D01*
X125203Y648276D01*
X125412Y648497D01*
X125583Y648740D01*
X125716Y649008D01*
X125812Y649299D01*
X125869Y649614D01*
X125888Y649952D01*
X125868Y650289D01*
X125810Y650602D01*
X125713Y650892D01*
X125577Y651159D01*
X125402Y651402D01*
X125188Y651623D01*
X124935Y651819D01*
X124644Y651993D01*
X124312Y652145D01*
X123939Y652277D01*
X123524Y652388D01*
X123067Y652479D01*
X122569Y652550D01*
X122030Y652601D01*
X121448Y652631D01*
X120825Y652641D01*
X120180Y652632D01*
X119582Y652603D01*
X119029Y652554D01*
X118522Y652487D01*
X118061Y652400D01*
X117646Y652294D01*
X117277Y652168D01*
X116954Y652024D01*
X116673Y651857D01*
X116429Y651665D01*
X116223Y651448D01*
X116054Y651206D01*
X115923Y650939D01*
X115829Y650647D01*
X115773Y650330D01*
X115754Y649987D01*
X115773Y649637D01*
X115828Y649312D01*
X115920Y649012D01*
X116050Y648738D01*
X116216Y648490D01*
X116419Y648267D01*
X116659Y648070D01*
X116936Y647898D01*
X117256Y647750D01*
X117623Y647621D01*
X118038Y647512D01*
X118500Y647422D01*
X119010Y647353D01*
X119567Y647303D01*
X120172Y647273D01*
X120825Y647263D01*
G37*
%LPD*%
G36*
X127000Y656409D02*
X114659Y656409D01*
X114659Y658082D01*
X120843Y658082D01*
X114659Y664029D01*
X114659Y666000D01*
X120019Y660744D01*
X127000Y666700D01*
X127000Y664624D01*
X121044Y659693D01*
X122270Y658082D01*
X127000Y658082D01*
X127000Y656409D01*
G37*
G36*
X127000Y636366D02*
X125660Y636366D01*
X125660Y639511D01*
X116166Y639511D01*
X118154Y636725D01*
X116665Y636725D01*
X114659Y639642D01*
X114659Y641096D01*
X125660Y641096D01*
X125660Y644100D01*
X127000Y644100D01*
X127000Y636366D01*
G37*
G36*
X345135Y672925D02*
X344873Y672931D01*
X344619Y672950D01*
X344374Y672982D01*
X344137Y673026D01*
X343688Y673153D01*
X343271Y673330D01*
X342888Y673558D01*
X342538Y673836D01*
X342222Y674165D01*
X341938Y674545D01*
X341688Y674974D01*
X341470Y675448D01*
X341287Y675970D01*
X341137Y676538D01*
X341020Y677152D01*
X340936Y677813D01*
X340886Y678521D01*
X340869Y679275D01*
X340886Y680045D01*
X340934Y680765D01*
X341015Y681435D01*
X341129Y682056D01*
X341275Y682626D01*
X341453Y683147D01*
X341664Y683618D01*
X341907Y684039D01*
X342186Y684411D01*
X342502Y684733D01*
X342855Y685005D01*
X343246Y685228D01*
X343675Y685402D01*
X343904Y685470D01*
X344142Y685526D01*
X344389Y685569D01*
X344646Y685600D01*
X344912Y685619D01*
X345187Y685625D01*
X345456Y685618D01*
X345715Y685600D01*
X345965Y685568D01*
X346206Y685525D01*
X346439Y685468D01*
X346662Y685399D01*
X347083Y685224D01*
X347467Y684999D01*
X347816Y684723D01*
X348129Y684398D01*
X348406Y684022D01*
X348649Y683597D01*
X348860Y683124D01*
X349039Y682603D01*
X349185Y682034D01*
X349298Y681416D01*
X349379Y680751D01*
X349428Y680037D01*
X349444Y679275D01*
X349427Y678525D01*
X349376Y677820D01*
X349291Y677162D01*
X349171Y676549D01*
X349018Y675981D01*
X348831Y675460D01*
X348609Y674984D01*
X348354Y674554D01*
X348065Y674172D01*
X347744Y673841D01*
X347390Y673561D01*
X347004Y673332D01*
X346585Y673154D01*
X346134Y673027D01*
X345896Y672982D01*
X345651Y672950D01*
X345397Y672931D01*
X345135Y672925D01*
G37*
%LPC*%
G36*
X345152Y674212D02*
X345489Y674232D01*
X345802Y674290D01*
X346092Y674387D01*
X346359Y674523D01*
X346602Y674698D01*
X346823Y674912D01*
X347019Y675165D01*
X347193Y675456D01*
X347345Y675788D01*
X347477Y676161D01*
X347588Y676576D01*
X347679Y677033D01*
X347750Y677531D01*
X347801Y678070D01*
X347831Y678652D01*
X347841Y679275D01*
X347832Y679920D01*
X347803Y680518D01*
X347754Y681071D01*
X347687Y681578D01*
X347600Y682039D01*
X347494Y682454D01*
X347368Y682823D01*
X347224Y683146D01*
X347057Y683427D01*
X346865Y683671D01*
X346648Y683877D01*
X346406Y684046D01*
X346139Y684177D01*
X345847Y684271D01*
X345530Y684327D01*
X345187Y684346D01*
X344837Y684327D01*
X344512Y684272D01*
X344212Y684180D01*
X343938Y684050D01*
X343690Y683884D01*
X343467Y683681D01*
X343270Y683441D01*
X343098Y683164D01*
X342950Y682844D01*
X342821Y682477D01*
X342712Y682062D01*
X342622Y681600D01*
X342553Y681090D01*
X342503Y680533D01*
X342473Y679928D01*
X342463Y679275D01*
X342474Y678640D01*
X342504Y678049D01*
X342554Y677502D01*
X342624Y677000D01*
X342715Y676541D01*
X342826Y676127D01*
X342956Y675756D01*
X343107Y675430D01*
X343280Y675144D01*
X343476Y674897D01*
X343697Y674688D01*
X343940Y674517D01*
X344208Y674384D01*
X344499Y674288D01*
X344814Y674231D01*
X345152Y674212D01*
G37*
%LPD*%
G36*
X353282Y673100D02*
X351609Y673100D01*
X351609Y685441D01*
X353282Y685441D01*
X353282Y679257D01*
X359229Y685441D01*
X361200Y685441D01*
X355944Y680081D01*
X361900Y673100D01*
X359824Y673100D01*
X354893Y679056D01*
X353282Y677830D01*
X353282Y673100D01*
G37*
G36*
X339300Y673100D02*
X331566Y673100D01*
X331566Y674440D01*
X334711Y674440D01*
X334711Y683934D01*
X331925Y681946D01*
X331925Y683435D01*
X334842Y685441D01*
X336296Y685441D01*
X336296Y674440D01*
X339300Y674440D01*
X339300Y673100D01*
G37*
G36*
X357835Y774525D02*
X357573Y774531D01*
X357319Y774550D01*
X357074Y774582D01*
X356837Y774626D01*
X356388Y774753D01*
X355971Y774930D01*
X355588Y775158D01*
X355238Y775436D01*
X354922Y775765D01*
X354638Y776145D01*
X354388Y776574D01*
X354170Y777048D01*
X353987Y777570D01*
X353837Y778138D01*
X353720Y778752D01*
X353636Y779413D01*
X353586Y780121D01*
X353569Y780875D01*
X353586Y781645D01*
X353634Y782365D01*
X353715Y783035D01*
X353829Y783656D01*
X353975Y784226D01*
X354153Y784747D01*
X354364Y785218D01*
X354607Y785639D01*
X354886Y786011D01*
X355202Y786333D01*
X355555Y786605D01*
X355946Y786828D01*
X356375Y787002D01*
X356604Y787070D01*
X356842Y787126D01*
X357089Y787169D01*
X357346Y787200D01*
X357612Y787219D01*
X357887Y787225D01*
X358156Y787218D01*
X358415Y787200D01*
X358665Y787168D01*
X358906Y787125D01*
X359139Y787068D01*
X359362Y786999D01*
X359783Y786824D01*
X360167Y786599D01*
X360516Y786323D01*
X360829Y785998D01*
X361106Y785622D01*
X361349Y785197D01*
X361560Y784724D01*
X361739Y784203D01*
X361885Y783634D01*
X361998Y783016D01*
X362079Y782351D01*
X362128Y781637D01*
X362144Y780875D01*
X362127Y780125D01*
X362076Y779420D01*
X361991Y778762D01*
X361871Y778149D01*
X361718Y777581D01*
X361531Y777060D01*
X361309Y776584D01*
X361054Y776154D01*
X360765Y775772D01*
X360444Y775441D01*
X360090Y775161D01*
X359704Y774932D01*
X359285Y774754D01*
X358834Y774627D01*
X358596Y774582D01*
X358351Y774550D01*
X358097Y774531D01*
X357835Y774525D01*
G37*
%LPC*%
G36*
X357852Y775812D02*
X358189Y775832D01*
X358502Y775890D01*
X358792Y775987D01*
X359059Y776123D01*
X359302Y776298D01*
X359523Y776512D01*
X359719Y776765D01*
X359893Y777056D01*
X360045Y777388D01*
X360177Y777761D01*
X360288Y778176D01*
X360379Y778633D01*
X360450Y779131D01*
X360501Y779670D01*
X360531Y780252D01*
X360541Y780875D01*
X360532Y781520D01*
X360503Y782118D01*
X360454Y782671D01*
X360387Y783178D01*
X360300Y783639D01*
X360194Y784054D01*
X360068Y784423D01*
X359924Y784746D01*
X359757Y785027D01*
X359565Y785271D01*
X359348Y785477D01*
X359106Y785646D01*
X358839Y785777D01*
X358547Y785871D01*
X358230Y785927D01*
X357887Y785946D01*
X357537Y785927D01*
X357212Y785872D01*
X356912Y785780D01*
X356638Y785650D01*
X356390Y785484D01*
X356167Y785281D01*
X355970Y785041D01*
X355798Y784764D01*
X355650Y784444D01*
X355521Y784077D01*
X355412Y783662D01*
X355322Y783200D01*
X355253Y782690D01*
X355203Y782133D01*
X355173Y781528D01*
X355163Y780875D01*
X355174Y780240D01*
X355204Y779649D01*
X355254Y779102D01*
X355324Y778600D01*
X355415Y778141D01*
X355526Y777727D01*
X355656Y777356D01*
X355807Y777030D01*
X355980Y776744D01*
X356176Y776497D01*
X356397Y776288D01*
X356640Y776117D01*
X356908Y775984D01*
X357199Y775888D01*
X357514Y775831D01*
X357852Y775812D01*
G37*
%LPD*%
G36*
X365982Y774700D02*
X364309Y774700D01*
X364309Y787041D01*
X365982Y787041D01*
X365982Y780857D01*
X371929Y787041D01*
X373900Y787041D01*
X368644Y781681D01*
X374600Y774700D01*
X372524Y774700D01*
X367593Y780656D01*
X365982Y779430D01*
X365982Y774700D01*
G37*
G36*
X352000Y774700D02*
X344266Y774700D01*
X344266Y776040D01*
X347411Y776040D01*
X347411Y785534D01*
X344625Y783546D01*
X344625Y785035D01*
X347542Y787041D01*
X348996Y787041D01*
X348996Y776040D01*
X352000Y776040D01*
X352000Y774700D01*
G37*
G36*
X209681Y939800D02*
X204671Y939800D01*
X204671Y952141D01*
X209156Y952141D01*
X209682Y952129D01*
X210174Y952094D01*
X210632Y952035D01*
X211056Y951954D01*
X211447Y951848D01*
X211803Y951720D01*
X212126Y951567D01*
X212414Y951392D01*
X212669Y951193D01*
X212889Y950971D01*
X213076Y950725D01*
X213229Y950456D01*
X213347Y950163D01*
X213432Y949847D01*
X213483Y949508D01*
X213500Y949145D01*
X213490Y948877D01*
X213462Y948620D01*
X213414Y948374D01*
X213347Y948138D01*
X213261Y947914D01*
X213155Y947700D01*
X213031Y947498D01*
X212887Y947306D01*
X212726Y947128D01*
X212626Y947036D01*
X212549Y946964D01*
X212356Y946817D01*
X212147Y946684D01*
X211922Y946567D01*
X211682Y946465D01*
X211425Y946379D01*
X211153Y946308D01*
X211510Y946254D01*
X211846Y946180D01*
X212161Y946087D01*
X212456Y945974D01*
X212729Y945841D01*
X212981Y945688D01*
X213211Y945515D01*
X213308Y945426D01*
X213421Y945322D01*
X213608Y945113D01*
X213770Y944891D01*
X213907Y944655D01*
X214019Y944406D01*
X214106Y944144D01*
X214168Y943868D01*
X214206Y943579D01*
X214218Y943277D01*
X214200Y942877D01*
X214143Y942500D01*
X214050Y942145D01*
X213918Y941813D01*
X213750Y941505D01*
X213543Y941219D01*
X213300Y940956D01*
X213018Y940715D01*
X212704Y940501D01*
X212360Y940315D01*
X211987Y940158D01*
X211584Y940029D01*
X211152Y939929D01*
X210691Y939857D01*
X210201Y939814D01*
X209681Y939800D01*
G37*
%LPC*%
G36*
X209594Y941140D02*
X209964Y941149D01*
X210308Y941176D01*
X210626Y941220D01*
X210918Y941282D01*
X211185Y941362D01*
X211425Y941460D01*
X211639Y941576D01*
X211827Y941709D01*
X211991Y941860D01*
X212134Y942029D01*
X212254Y942215D01*
X212353Y942419D01*
X212429Y942640D01*
X212484Y942879D01*
X212517Y943135D01*
X212528Y943409D01*
X212516Y943673D01*
X212480Y943920D01*
X212420Y944150D01*
X212336Y944363D01*
X212228Y944559D01*
X212097Y944737D01*
X211941Y944899D01*
X211761Y945044D01*
X211558Y945172D01*
X211330Y945283D01*
X211079Y945376D01*
X210804Y945453D01*
X210504Y945513D01*
X210181Y945555D01*
X209834Y945581D01*
X209462Y945589D01*
X206344Y945589D01*
X206344Y941140D01*
X209594Y941140D01*
G37*
G36*
X209156Y946894D02*
X209480Y946902D01*
X209783Y946926D01*
X210065Y946965D01*
X210326Y947020D01*
X210566Y947091D01*
X210784Y947178D01*
X210981Y947280D01*
X211157Y947398D01*
X211312Y947532D01*
X211446Y947684D01*
X211560Y947851D01*
X211653Y948036D01*
X211725Y948238D01*
X211777Y948456D01*
X211808Y948692D01*
X211818Y948944D01*
X211808Y949185D01*
X211776Y949408D01*
X211722Y949613D01*
X211648Y949800D01*
X211552Y949970D01*
X211434Y950121D01*
X211295Y950255D01*
X211135Y950372D01*
X210955Y950472D01*
X210755Y950559D01*
X210537Y950633D01*
X210299Y950693D01*
X210042Y950740D01*
X209766Y950774D01*
X209470Y950794D01*
X209156Y950801D01*
X206344Y950801D01*
X206344Y946894D01*
X209156Y946894D01*
G37*
%LPD*%
G36*
X263992Y939625D02*
X263489Y939645D01*
X263018Y939704D01*
X262578Y939803D01*
X262171Y939941D01*
X261794Y940119D01*
X261450Y940337D01*
X261138Y940594D01*
X260857Y940890D01*
X260608Y941224D01*
X260393Y941594D01*
X260211Y941998D01*
X260062Y942437D01*
X259946Y942912D01*
X259863Y943422D01*
X259814Y943967D01*
X259797Y944547D01*
X259814Y945141D01*
X259863Y945697D01*
X259946Y946214D01*
X260062Y946693D01*
X260212Y947134D01*
X260394Y947536D01*
X260610Y947900D01*
X260859Y948226D01*
X261141Y948513D01*
X261456Y948762D01*
X261805Y948973D01*
X262186Y949145D01*
X262601Y949279D01*
X263049Y949375D01*
X263530Y949433D01*
X264045Y949452D01*
X264570Y949433D01*
X265059Y949377D01*
X265513Y949284D01*
X265930Y949153D01*
X266312Y948985D01*
X266658Y948779D01*
X266968Y948537D01*
X267242Y948256D01*
X267482Y947937D01*
X267690Y947576D01*
X267866Y947174D01*
X268010Y946731D01*
X268122Y946247D01*
X268202Y945722D01*
X268250Y945155D01*
X268266Y944547D01*
X268249Y943945D01*
X268198Y943383D01*
X268113Y942860D01*
X267993Y942377D01*
X267839Y941934D01*
X267651Y941530D01*
X267428Y941166D01*
X267172Y940842D01*
X266883Y940557D01*
X266562Y940310D01*
X266211Y940100D01*
X265829Y939929D01*
X265417Y939796D01*
X264973Y939701D01*
X264498Y939644D01*
X263992Y939625D01*
G37*
%LPC*%
G36*
X263975Y940790D02*
X264317Y940804D01*
X264634Y940847D01*
X264925Y940918D01*
X265191Y941017D01*
X265432Y941146D01*
X265647Y941302D01*
X265838Y941487D01*
X266002Y941701D01*
X266145Y941944D01*
X266269Y942220D01*
X266373Y942528D01*
X266459Y942868D01*
X266526Y943240D01*
X266573Y943643D01*
X266602Y944079D01*
X266611Y944547D01*
X266602Y945021D01*
X266575Y945461D01*
X266529Y945868D01*
X266466Y946241D01*
X266384Y946580D01*
X266284Y946886D01*
X266165Y947159D01*
X266029Y947398D01*
X265871Y947606D01*
X265688Y947787D01*
X265480Y947940D01*
X265248Y948065D01*
X264991Y948162D01*
X264709Y948231D01*
X264403Y948273D01*
X264071Y948287D01*
X263737Y948273D01*
X263427Y948230D01*
X263141Y948160D01*
X262879Y948060D01*
X262641Y947933D01*
X262426Y947777D01*
X262236Y947593D01*
X262070Y947381D01*
X261925Y947138D01*
X261800Y946863D01*
X261694Y946557D01*
X261607Y946219D01*
X261539Y945849D01*
X261491Y945447D01*
X261462Y945013D01*
X261452Y944547D01*
X261462Y944093D01*
X261490Y943668D01*
X261538Y943273D01*
X261605Y942906D01*
X261690Y942569D01*
X261795Y942260D01*
X261918Y941981D01*
X262061Y941731D01*
X262224Y941511D01*
X262409Y941319D01*
X262616Y941158D01*
X262844Y941025D01*
X263094Y940922D01*
X263366Y940849D01*
X263659Y940804D01*
X263975Y940790D01*
G37*
%LPD*%
G36*
X218129Y939800D02*
X216640Y939800D01*
X216640Y952141D01*
X218585Y952141D01*
X225259Y941560D01*
X225180Y943041D01*
X225153Y944048D01*
X225153Y952141D01*
X226660Y952141D01*
X226660Y939800D01*
X224645Y939800D01*
X218042Y950310D01*
X218085Y949461D01*
X218129Y947998D01*
X218129Y939800D01*
G37*
G36*
X294012Y939625D02*
X293503Y939644D01*
X293024Y939703D01*
X292577Y939801D01*
X292161Y939938D01*
X291777Y940114D01*
X291423Y940329D01*
X291102Y940584D01*
X290811Y940877D01*
X290554Y941209D01*
X290330Y941580D01*
X290141Y941988D01*
X289987Y942434D01*
X289867Y942918D01*
X289781Y943441D01*
X289729Y944001D01*
X289712Y944600D01*
X289729Y945169D01*
X289781Y945705D01*
X289867Y946206D01*
X289987Y946673D01*
X290141Y947106D01*
X290330Y947505D01*
X290554Y947869D01*
X290811Y948199D01*
X291101Y948493D01*
X291420Y948747D01*
X291768Y948963D01*
X292146Y949139D01*
X292553Y949276D01*
X292990Y949374D01*
X293456Y949432D01*
X293951Y949452D01*
X294457Y949432D01*
X294930Y949373D01*
X295371Y949275D01*
X295779Y949137D01*
X296154Y948960D01*
X296497Y948744D01*
X296807Y948488D01*
X297084Y948193D01*
X297329Y947858D01*
X297541Y947485D01*
X297721Y947072D01*
X297868Y946619D01*
X297982Y946127D01*
X298064Y945596D01*
X298113Y945026D01*
X298129Y944416D01*
X298129Y944206D01*
X291367Y944206D01*
X291378Y943810D01*
X291410Y943438D01*
X291462Y943088D01*
X291536Y942763D01*
X291631Y942460D01*
X291747Y942181D01*
X291884Y941925D01*
X292042Y941692D01*
X292220Y941485D01*
X292418Y941305D01*
X292635Y941153D01*
X292872Y941028D01*
X293128Y940932D01*
X293403Y940863D01*
X293698Y940821D01*
X294012Y940807D01*
X294262Y940814D01*
X294499Y940833D01*
X294724Y940865D01*
X294935Y940910D01*
X295134Y940968D01*
X295320Y941039D01*
X295494Y941122D01*
X295655Y941219D01*
X295938Y941438D01*
X296173Y941685D01*
X296357Y941960D01*
X296491Y942261D01*
X297875Y941867D01*
X297760Y941596D01*
X297629Y941342D01*
X297480Y941105D01*
X297315Y940886D01*
X297133Y940685D01*
X296934Y940501D01*
X296717Y940334D01*
X296485Y940185D01*
X296235Y940054D01*
X295968Y939940D01*
X295684Y939844D01*
X295384Y939765D01*
X295066Y939704D01*
X294732Y939660D01*
X294381Y939634D01*
X294012Y939625D01*
G37*
%LPC*%
G36*
X296500Y945414D02*
X296459Y945776D01*
X296403Y946112D01*
X296331Y946424D01*
X296244Y946709D01*
X296141Y946970D01*
X296022Y947205D01*
X295888Y947415D01*
X295738Y947599D01*
X295572Y947761D01*
X295388Y947900D01*
X295187Y948018D01*
X294969Y948115D01*
X294734Y948190D01*
X294482Y948244D01*
X294212Y948276D01*
X293925Y948287D01*
X293645Y948275D01*
X293381Y948239D01*
X293131Y948179D01*
X292897Y948095D01*
X292677Y947988D01*
X292472Y947856D01*
X292282Y947700D01*
X292107Y947521D01*
X291950Y947320D01*
X291811Y947102D01*
X291692Y946865D01*
X291592Y946611D01*
X291511Y946339D01*
X291450Y946048D01*
X291408Y945740D01*
X291385Y945414D01*
X296500Y945414D01*
G37*
%LPD*%
G36*
X235066Y939625D02*
X234607Y939637D01*
X234164Y939673D01*
X233737Y939734D01*
X233326Y939819D01*
X232930Y939928D01*
X232550Y940061D01*
X232186Y940218D01*
X231838Y940400D01*
X231508Y940604D01*
X231198Y940829D01*
X230908Y941075D01*
X230638Y941342D01*
X230389Y941629D01*
X230160Y941937D01*
X229951Y942266D01*
X229762Y942616D01*
X229595Y942984D01*
X229450Y943369D01*
X229327Y943771D01*
X229227Y944189D01*
X229149Y944624D01*
X229093Y945075D01*
X229060Y945543D01*
X229048Y946027D01*
X229055Y946391D01*
X229073Y946745D01*
X229104Y947089D01*
X229148Y947423D01*
X229204Y947747D01*
X229273Y948061D01*
X229354Y948365D01*
X229447Y948659D01*
X229553Y948943D01*
X229671Y949217D01*
X229945Y949735D01*
X230269Y950214D01*
X230642Y950652D01*
X231060Y951044D01*
X231516Y951384D01*
X231758Y951534D01*
X232010Y951671D01*
X232272Y951795D01*
X232543Y951906D01*
X232824Y952005D01*
X233114Y952089D01*
X233414Y952161D01*
X233723Y952220D01*
X234042Y952266D01*
X234371Y952299D01*
X234709Y952318D01*
X235057Y952325D01*
X235539Y952313D01*
X236002Y952277D01*
X236444Y952216D01*
X236865Y952132D01*
X237267Y952024D01*
X237648Y951891D01*
X238009Y951735D01*
X238350Y951554D01*
X238670Y951350D01*
X238967Y951122D01*
X239243Y950871D01*
X239497Y950597D01*
X239729Y950300D01*
X239940Y949979D01*
X240128Y949635D01*
X240294Y949268D01*
X238709Y948742D01*
X238594Y949004D01*
X238462Y949249D01*
X238314Y949479D01*
X238150Y949693D01*
X237969Y949891D01*
X237772Y950073D01*
X237559Y950239D01*
X237330Y950389D01*
X237086Y950523D01*
X236832Y950638D01*
X236567Y950736D01*
X236291Y950816D01*
X236003Y950878D01*
X235705Y950923D01*
X235395Y950949D01*
X235074Y950958D01*
X234576Y950938D01*
X234106Y950876D01*
X233665Y950773D01*
X233252Y950629D01*
X232868Y950443D01*
X232512Y950217D01*
X232185Y949949D01*
X231886Y949640D01*
X231619Y949295D01*
X231388Y948920D01*
X231192Y948514D01*
X231032Y948078D01*
X230908Y947611D01*
X230819Y947114D01*
X230765Y946586D01*
X230748Y946027D01*
X230766Y945474D01*
X230822Y944949D01*
X230914Y944451D01*
X231044Y943981D01*
X231211Y943539D01*
X231415Y943125D01*
X231656Y942738D01*
X231934Y942379D01*
X232244Y942056D01*
X232580Y941776D01*
X232942Y941539D01*
X233330Y941345D01*
X233745Y941194D01*
X234185Y941086D01*
X234652Y941021D01*
X235144Y941000D01*
X235463Y941010D01*
X235772Y941040D01*
X236071Y941090D01*
X236360Y941160D01*
X236639Y941251D01*
X236908Y941361D01*
X237166Y941491D01*
X237415Y941641D01*
X237654Y941812D01*
X237882Y942002D01*
X238101Y942213D01*
X238309Y942443D01*
X238507Y942694D01*
X238696Y942965D01*
X238874Y943255D01*
X239042Y943566D01*
X240408Y942883D01*
X240208Y942496D01*
X239989Y942134D01*
X239750Y941795D01*
X239492Y941479D01*
X239215Y941188D01*
X238918Y940921D01*
X238602Y940677D01*
X238267Y940457D01*
X237915Y940262D01*
X237549Y940093D01*
X237170Y939950D01*
X236777Y939833D01*
X236370Y939742D01*
X235949Y939677D01*
X235514Y939638D01*
X235066Y939625D01*
G37*
G36*
X253003Y939625D02*
X252544Y939637D01*
X252102Y939673D01*
X251675Y939734D01*
X251263Y939819D01*
X250868Y939928D01*
X250488Y940061D01*
X250124Y940218D01*
X249775Y940400D01*
X249445Y940604D01*
X249135Y940829D01*
X248845Y941075D01*
X248576Y941342D01*
X248326Y941629D01*
X248097Y941937D01*
X247888Y942266D01*
X247700Y942616D01*
X247532Y942984D01*
X247387Y943369D01*
X247265Y943771D01*
X247164Y944189D01*
X247086Y944624D01*
X247031Y945075D01*
X246997Y945543D01*
X246986Y946027D01*
X246992Y946391D01*
X247011Y946745D01*
X247042Y947089D01*
X247086Y947423D01*
X247142Y947747D01*
X247210Y948061D01*
X247291Y948365D01*
X247384Y948659D01*
X247490Y948943D01*
X247609Y949217D01*
X247883Y949735D01*
X248206Y950214D01*
X248580Y950652D01*
X248998Y951044D01*
X249454Y951384D01*
X249696Y951534D01*
X249948Y951671D01*
X250209Y951795D01*
X250481Y951906D01*
X250761Y952005D01*
X251051Y952089D01*
X251351Y952161D01*
X251661Y952220D01*
X251980Y952266D01*
X252308Y952299D01*
X252647Y952318D01*
X252994Y952325D01*
X253477Y952313D01*
X253939Y952277D01*
X254381Y952216D01*
X254803Y952132D01*
X255204Y952024D01*
X255586Y951891D01*
X255947Y951735D01*
X256287Y951554D01*
X256607Y951350D01*
X256905Y951122D01*
X257181Y950871D01*
X257435Y950597D01*
X257667Y950300D01*
X257877Y949979D01*
X258065Y949635D01*
X258232Y949268D01*
X256647Y948742D01*
X256531Y949004D01*
X256399Y949249D01*
X256251Y949479D01*
X256087Y949693D01*
X255907Y949891D01*
X255710Y950073D01*
X255497Y950239D01*
X255267Y950389D01*
X255024Y950523D01*
X254770Y950638D01*
X254504Y950736D01*
X254228Y950816D01*
X253941Y950878D01*
X253642Y950923D01*
X253332Y950949D01*
X253012Y950958D01*
X252514Y950938D01*
X252044Y950876D01*
X251603Y950773D01*
X251190Y950629D01*
X250806Y950443D01*
X250450Y950217D01*
X250123Y949949D01*
X249824Y949640D01*
X249557Y949295D01*
X249326Y948920D01*
X249130Y948514D01*
X248970Y948078D01*
X248845Y947611D01*
X248756Y947114D01*
X248703Y946586D01*
X248685Y946027D01*
X248704Y945474D01*
X248759Y944949D01*
X248852Y944451D01*
X248982Y943981D01*
X249149Y943539D01*
X249353Y943125D01*
X249594Y942738D01*
X249872Y942379D01*
X250182Y942056D01*
X250517Y941776D01*
X250880Y941539D01*
X251268Y941345D01*
X251682Y941194D01*
X252123Y941086D01*
X252589Y941021D01*
X253082Y941000D01*
X253401Y941010D01*
X253710Y941040D01*
X254009Y941090D01*
X254298Y941160D01*
X254576Y941251D01*
X254845Y941361D01*
X255104Y941491D01*
X255352Y941641D01*
X255591Y941812D01*
X255820Y942002D01*
X256038Y942213D01*
X256246Y942443D01*
X256445Y942694D01*
X256633Y942965D01*
X256811Y943255D01*
X256979Y943566D01*
X258346Y942883D01*
X258146Y942496D01*
X257926Y942134D01*
X257687Y941795D01*
X257429Y941479D01*
X257152Y941188D01*
X256855Y940921D01*
X256539Y940677D01*
X256204Y940457D01*
X255852Y940262D01*
X255487Y940093D01*
X255107Y939950D01*
X254714Y939833D01*
X254307Y939742D01*
X253886Y939677D01*
X253452Y939638D01*
X253003Y939625D01*
G37*
G36*
X271833Y939800D02*
X270256Y939800D01*
X270256Y947254D01*
X270243Y948587D01*
X270227Y949012D01*
X270204Y949277D01*
X271693Y949277D01*
X271710Y949040D01*
X271732Y948598D01*
X271763Y947656D01*
X271789Y947656D01*
X272071Y948111D01*
X272375Y948494D01*
X272534Y948659D01*
X272700Y948805D01*
X272870Y948934D01*
X273046Y949045D01*
X273230Y949140D01*
X273424Y949223D01*
X273630Y949293D01*
X273846Y949350D01*
X274073Y949395D01*
X274311Y949426D01*
X274560Y949446D01*
X274819Y949452D01*
X275196Y949440D01*
X275547Y949403D01*
X275871Y949343D01*
X276169Y949258D01*
X276441Y949149D01*
X276687Y949016D01*
X276907Y948858D01*
X277101Y948677D01*
X277270Y948467D01*
X277417Y948226D01*
X277541Y947953D01*
X277643Y947649D01*
X277722Y947313D01*
X277778Y946945D01*
X277812Y946546D01*
X277824Y946115D01*
X277824Y939800D01*
X276238Y939800D01*
X276238Y945808D01*
X276227Y946251D01*
X276192Y946640D01*
X276135Y946978D01*
X276054Y947262D01*
X275949Y947503D01*
X275816Y947707D01*
X275655Y947875D01*
X275468Y948007D01*
X275243Y948106D01*
X274971Y948178D01*
X274651Y948220D01*
X274285Y948234D01*
X274008Y948222D01*
X273746Y948186D01*
X273499Y948125D01*
X273267Y948040D01*
X273050Y947930D01*
X272848Y947796D01*
X272661Y947638D01*
X272490Y947455D01*
X272336Y947251D01*
X272202Y947027D01*
X272089Y946785D01*
X271997Y946524D01*
X271925Y946245D01*
X271874Y945946D01*
X271843Y945628D01*
X271833Y945292D01*
X271833Y939800D01*
G37*
G36*
X281802Y939800D02*
X280225Y939800D01*
X280225Y947254D01*
X280212Y948587D01*
X280195Y949012D01*
X280172Y949277D01*
X281661Y949277D01*
X281679Y949040D01*
X281701Y948598D01*
X281731Y947656D01*
X281758Y947656D01*
X282040Y948111D01*
X282343Y948494D01*
X282503Y948659D01*
X282668Y948805D01*
X282839Y948934D01*
X283015Y949045D01*
X283198Y949140D01*
X283393Y949223D01*
X283599Y949293D01*
X283815Y949350D01*
X284042Y949395D01*
X284280Y949426D01*
X284529Y949446D01*
X284788Y949452D01*
X285165Y949440D01*
X285515Y949403D01*
X285840Y949343D01*
X286138Y949258D01*
X286410Y949149D01*
X286656Y949016D01*
X286876Y948858D01*
X287070Y948677D01*
X287239Y948467D01*
X287386Y948226D01*
X287510Y947953D01*
X287612Y947649D01*
X287691Y947313D01*
X287747Y946945D01*
X287781Y946546D01*
X287792Y946115D01*
X287792Y939800D01*
X286207Y939800D01*
X286207Y945808D01*
X286196Y946251D01*
X286161Y946640D01*
X286104Y946978D01*
X286023Y947262D01*
X285917Y947503D01*
X285784Y947707D01*
X285624Y947875D01*
X285436Y948007D01*
X285211Y948106D01*
X284939Y948178D01*
X284620Y948220D01*
X284254Y948234D01*
X283977Y948222D01*
X283715Y948186D01*
X283468Y948125D01*
X283236Y948040D01*
X283019Y947930D01*
X282817Y947796D01*
X282630Y947638D01*
X282458Y947455D01*
X282304Y947251D01*
X282171Y947027D01*
X282058Y946785D01*
X281966Y946524D01*
X281894Y946245D01*
X281843Y945946D01*
X281812Y945628D01*
X281802Y945292D01*
X281802Y939800D01*
G37*
G36*
X303762Y939625D02*
X303280Y939644D01*
X302827Y939703D01*
X302403Y939802D01*
X302009Y939939D01*
X301645Y940116D01*
X301310Y940332D01*
X301004Y940587D01*
X300727Y940882D01*
X300482Y941214D01*
X300269Y941582D01*
X300090Y941986D01*
X299942Y942426D01*
X299828Y942903D01*
X299746Y943415D01*
X299697Y943963D01*
X299681Y944547D01*
X299697Y945127D01*
X299746Y945672D01*
X299829Y946181D01*
X299943Y946655D01*
X300091Y947093D01*
X300272Y947496D01*
X300485Y947863D01*
X300732Y948195D01*
X301009Y948490D01*
X301314Y948745D01*
X301648Y948961D01*
X302011Y949138D01*
X302401Y949275D01*
X302821Y949373D01*
X303268Y949432D01*
X303745Y949452D01*
X304100Y949440D01*
X304441Y949405D01*
X304766Y949346D01*
X305075Y949264D01*
X305369Y949158D01*
X305647Y949028D01*
X305910Y948875D01*
X306158Y948699D01*
X306386Y948501D01*
X306593Y948286D01*
X306777Y948054D01*
X306938Y947803D01*
X307078Y947535D01*
X307195Y947249D01*
X307290Y946945D01*
X307362Y946623D01*
X305742Y946500D01*
X305657Y946874D01*
X305525Y947208D01*
X305346Y947500D01*
X305120Y947753D01*
X304988Y947862D01*
X304844Y947956D01*
X304686Y948036D01*
X304515Y948101D01*
X304332Y948152D01*
X304134Y948188D01*
X303924Y948210D01*
X303701Y948217D01*
X303399Y948204D01*
X303118Y948165D01*
X302859Y948100D01*
X302621Y948009D01*
X302406Y947892D01*
X302211Y947749D01*
X302039Y947580D01*
X301888Y947385D01*
X301757Y947159D01*
X301643Y946898D01*
X301546Y946601D01*
X301467Y946268D01*
X301406Y945900D01*
X301362Y945496D01*
X301336Y945057D01*
X301327Y944582D01*
X301337Y944125D01*
X301365Y943698D01*
X301411Y943301D01*
X301476Y942936D01*
X301560Y942601D01*
X301662Y942296D01*
X301783Y942022D01*
X301923Y941779D01*
X302081Y941566D01*
X302258Y941381D01*
X302455Y941224D01*
X302670Y941096D01*
X302903Y940997D01*
X303156Y940925D01*
X303428Y940883D01*
X303718Y940869D01*
X303924Y940876D01*
X304122Y940897D01*
X304310Y940933D01*
X304490Y940982D01*
X304662Y941046D01*
X304824Y941125D01*
X304979Y941217D01*
X305124Y941324D01*
X305259Y941446D01*
X305380Y941582D01*
X305487Y941735D01*
X305581Y941902D01*
X305661Y942085D01*
X305728Y942283D01*
X305781Y942497D01*
X305820Y942725D01*
X307415Y942620D01*
X307356Y942287D01*
X307273Y941972D01*
X307165Y941673D01*
X307031Y941392D01*
X306873Y941128D01*
X306690Y940881D01*
X306482Y940652D01*
X306250Y940439D01*
X305996Y940248D01*
X305726Y940083D01*
X305440Y939943D01*
X305137Y939828D01*
X304818Y939739D01*
X304483Y939676D01*
X304131Y939638D01*
X303762Y939625D01*
G37*
G36*
X311146Y939660D02*
X310917Y939668D01*
X310702Y939693D01*
X310503Y939735D01*
X310318Y939794D01*
X310148Y939869D01*
X309993Y939962D01*
X309852Y940071D01*
X309727Y940196D01*
X309616Y940339D01*
X309520Y940498D01*
X309439Y940674D01*
X309372Y940867D01*
X309320Y941076D01*
X309283Y941303D01*
X309261Y941546D01*
X309254Y941806D01*
X309254Y948129D01*
X308159Y948129D01*
X308159Y949277D01*
X309315Y949277D01*
X309779Y951396D01*
X310830Y951396D01*
X310830Y949277D01*
X312582Y949277D01*
X312582Y948129D01*
X310830Y948129D01*
X310830Y942147D01*
X310844Y941831D01*
X310886Y941566D01*
X310956Y941352D01*
X311054Y941188D01*
X311186Y941068D01*
X311359Y940981D01*
X311573Y940930D01*
X311829Y940912D01*
X312214Y940943D01*
X312740Y941035D01*
X312740Y939870D01*
X312348Y939778D01*
X311951Y939712D01*
X311551Y939673D01*
X311146Y939660D01*
G37*
G36*
X211962Y733375D02*
X211590Y733383D01*
X211229Y733409D01*
X210880Y733452D01*
X210544Y733513D01*
X210219Y733590D01*
X209906Y733685D01*
X209606Y733797D01*
X209317Y733927D01*
X209043Y734072D01*
X208784Y734234D01*
X208541Y734411D01*
X208315Y734603D01*
X208104Y734811D01*
X207908Y735035D01*
X207729Y735274D01*
X207566Y735529D01*
X207420Y735798D01*
X207294Y736080D01*
X207187Y736374D01*
X207099Y736681D01*
X207031Y737001D01*
X206983Y737333D01*
X206954Y737677D01*
X206944Y738034D01*
X206944Y745891D01*
X208617Y745891D01*
X208617Y738175D01*
X208630Y737765D01*
X208670Y737380D01*
X208737Y737021D01*
X208831Y736688D01*
X208952Y736380D01*
X209100Y736097D01*
X209274Y735840D01*
X209475Y735608D01*
X209702Y735403D01*
X209952Y735225D01*
X210226Y735075D01*
X210524Y734951D01*
X210846Y734856D01*
X211191Y734787D01*
X211561Y734746D01*
X211954Y734732D01*
X212358Y734747D01*
X212740Y734789D01*
X213098Y734860D01*
X213433Y734959D01*
X213745Y735087D01*
X214034Y735242D01*
X214299Y735426D01*
X214542Y735639D01*
X214758Y735879D01*
X214946Y736144D01*
X215105Y736436D01*
X215235Y736755D01*
X215336Y737099D01*
X215408Y737469D01*
X215451Y737866D01*
X215466Y738288D01*
X215466Y745891D01*
X217130Y745891D01*
X217130Y738192D01*
X217120Y737824D01*
X217090Y737469D01*
X217041Y737127D01*
X216971Y736797D01*
X216882Y736481D01*
X216773Y736177D01*
X216644Y735886D01*
X216495Y735608D01*
X216328Y735345D01*
X216145Y735097D01*
X215945Y734866D01*
X215729Y734650D01*
X215496Y734451D01*
X215247Y734267D01*
X214981Y734100D01*
X214700Y733949D01*
X214403Y733814D01*
X214093Y733698D01*
X213771Y733599D01*
X213435Y733518D01*
X213086Y733456D01*
X212725Y733411D01*
X212350Y733384D01*
X211962Y733375D01*
G37*
G36*
X227629Y733550D02*
X219895Y733550D01*
X219895Y734890D01*
X223039Y734890D01*
X223039Y744384D01*
X220254Y742396D01*
X220254Y743885D01*
X223171Y745891D01*
X224625Y745891D01*
X224625Y734890D01*
X227629Y734890D01*
X227629Y733550D01*
G37*
G36*
X450158Y776675D02*
X448479Y776675D01*
X448479Y789058D01*
X454306Y789058D01*
X454814Y789044D01*
X455292Y789000D01*
X455741Y788927D01*
X456159Y788824D01*
X456548Y788693D01*
X456907Y788532D01*
X457237Y788342D01*
X457536Y788122D01*
X457803Y787877D01*
X458034Y787609D01*
X458230Y787317D01*
X458390Y787003D01*
X458514Y786666D01*
X458603Y786306D01*
X458656Y785922D01*
X458674Y785516D01*
X458662Y785178D01*
X458624Y784854D01*
X458561Y784543D01*
X458473Y784246D01*
X458360Y783963D01*
X458222Y783694D01*
X458059Y783438D01*
X457870Y783196D01*
X457659Y782972D01*
X457430Y782769D01*
X457181Y782588D01*
X457070Y782522D01*
X456913Y782429D01*
X456626Y782292D01*
X456320Y782176D01*
X455995Y782082D01*
X455651Y782010D01*
X457147Y779739D01*
X459166Y776675D01*
X457233Y776675D01*
X454016Y781816D01*
X450158Y781816D01*
X450158Y776675D01*
G37*
%LPC*%
G36*
X454209Y783143D02*
X454532Y783153D01*
X454835Y783182D01*
X455120Y783231D01*
X455386Y783298D01*
X455633Y783385D01*
X455861Y783492D01*
X456071Y783618D01*
X456262Y783763D01*
X456432Y783926D01*
X456579Y784104D01*
X456704Y784298D01*
X456805Y784507D01*
X456885Y784732D01*
X456941Y784972D01*
X456975Y785228D01*
X456987Y785499D01*
X456975Y785761D01*
X456941Y786007D01*
X456884Y786237D01*
X456803Y786451D01*
X456700Y786649D01*
X456574Y786831D01*
X456425Y786997D01*
X456253Y787147D01*
X456059Y787280D01*
X455846Y787395D01*
X455612Y787492D01*
X455357Y787572D01*
X455083Y787634D01*
X454789Y787678D01*
X454474Y787705D01*
X454139Y787714D01*
X450158Y787714D01*
X450158Y783143D01*
X454209Y783143D01*
G37*
%LPD*%
G36*
X441875Y776675D02*
X440135Y776675D01*
X435081Y789058D01*
X436848Y789058D01*
X440276Y780340D01*
X441014Y778151D01*
X441752Y780340D01*
X445163Y789058D01*
X446929Y789058D01*
X441875Y776675D01*
G37*
G36*
X469134Y776675D02*
X461373Y776675D01*
X461373Y778019D01*
X464529Y778019D01*
X464529Y787547D01*
X461734Y785552D01*
X461734Y787046D01*
X464661Y789058D01*
X466120Y789058D01*
X466120Y778019D01*
X469134Y778019D01*
X469134Y776675D01*
G37*
G36*
X228026Y940346D02*
X226713Y942606D01*
X225346Y940363D01*
X224304Y940994D01*
X225959Y943166D01*
X223507Y943806D01*
X223901Y944979D01*
X226240Y944042D01*
X226135Y946643D01*
X227326Y946643D01*
X227212Y944060D01*
X229524Y944962D01*
X229918Y943806D01*
X227448Y943166D01*
X229069Y940977D01*
X228026Y940346D01*
G37*
G36*
X364145Y946453D02*
X362656Y946453D01*
X362656Y949246D01*
X356840Y949246D01*
X356840Y950473D01*
X362490Y958793D01*
X364145Y958793D01*
X364145Y950490D01*
X365879Y950490D01*
X365879Y949246D01*
X364145Y949246D01*
X364145Y946453D01*
G37*
%LPC*%
G36*
X362656Y950490D02*
X362656Y957015D01*
X362411Y956551D01*
X362069Y955973D01*
X358907Y951313D01*
X358434Y950665D01*
X358294Y950490D01*
X362656Y950490D01*
G37*
%LPD*%
G36*
X351463Y946277D02*
X351081Y946290D01*
X350719Y946328D01*
X350376Y946391D01*
X350054Y946480D01*
X349752Y946594D01*
X349469Y946733D01*
X349207Y946898D01*
X348964Y947087D01*
X348742Y947303D01*
X348539Y947543D01*
X348356Y947809D01*
X348193Y948100D01*
X348050Y948417D01*
X347927Y948758D01*
X347824Y949126D01*
X347740Y949518D01*
X349378Y949790D01*
X349424Y949542D01*
X349482Y949309D01*
X349552Y949090D01*
X349634Y948885D01*
X349729Y948694D01*
X349836Y948517D01*
X349956Y948354D01*
X350088Y948204D01*
X350230Y948071D01*
X350381Y947955D01*
X350541Y947857D01*
X350709Y947777D01*
X350887Y947715D01*
X351073Y947670D01*
X351268Y947644D01*
X351471Y947635D01*
X351693Y947645D01*
X351903Y947674D01*
X352100Y947723D01*
X352286Y947791D01*
X352459Y947880D01*
X352621Y947987D01*
X352770Y948114D01*
X352908Y948261D01*
X353031Y948427D01*
X353138Y948611D01*
X353228Y948813D01*
X353302Y949033D01*
X353359Y949271D01*
X353400Y949528D01*
X353425Y949803D01*
X353433Y950096D01*
X353433Y957427D01*
X351060Y957427D01*
X351060Y958793D01*
X355097Y958793D01*
X355097Y950131D01*
X355082Y949694D01*
X355037Y949281D01*
X354961Y948892D01*
X354854Y948527D01*
X354718Y948186D01*
X354551Y947869D01*
X354353Y947576D01*
X354125Y947306D01*
X353871Y947065D01*
X353594Y946856D01*
X353295Y946679D01*
X352974Y946535D01*
X352629Y946422D01*
X352263Y946342D01*
X351874Y946293D01*
X351463Y946277D01*
G37*
D10*
X247650Y771850D02*
X247650Y771440D01*
X247650Y676360D02*
X247650Y675950D01*
X184150Y771440D02*
X184150Y771850D01*
X184150Y676360D02*
X184150Y675950D01*
X184150Y771850D02*
X247650Y771850D01*
X247650Y675950D02*
X184150Y675950D01*
D11*
X158960Y762000D02*
X158962Y762063D01*
X158968Y762125D01*
X158978Y762187D01*
X158991Y762249D01*
X159009Y762309D01*
X159030Y762368D01*
X159055Y762426D01*
X159084Y762482D01*
X159116Y762536D01*
X159151Y762588D01*
X159189Y762637D01*
X159231Y762685D01*
X159275Y762729D01*
X159323Y762771D01*
X159372Y762809D01*
X159424Y762844D01*
X159478Y762876D01*
X159534Y762905D01*
X159592Y762930D01*
X159651Y762951D01*
X159711Y762969D01*
X159773Y762982D01*
X159835Y762992D01*
X159897Y762998D01*
X159960Y763000D01*
X160023Y762998D01*
X160085Y762992D01*
X160147Y762982D01*
X160209Y762969D01*
X160269Y762951D01*
X160328Y762930D01*
X160386Y762905D01*
X160442Y762876D01*
X160496Y762844D01*
X160548Y762809D01*
X160597Y762771D01*
X160645Y762729D01*
X160689Y762685D01*
X160731Y762637D01*
X160769Y762588D01*
X160804Y762536D01*
X160836Y762482D01*
X160865Y762426D01*
X160890Y762368D01*
X160911Y762309D01*
X160929Y762249D01*
X160942Y762187D01*
X160952Y762125D01*
X160958Y762063D01*
X160960Y762000D01*
X160958Y761937D01*
X160952Y761875D01*
X160942Y761813D01*
X160929Y761751D01*
X160911Y761691D01*
X160890Y761632D01*
X160865Y761574D01*
X160836Y761518D01*
X160804Y761464D01*
X160769Y761412D01*
X160731Y761363D01*
X160689Y761315D01*
X160645Y761271D01*
X160597Y761229D01*
X160548Y761191D01*
X160496Y761156D01*
X160442Y761124D01*
X160386Y761095D01*
X160328Y761070D01*
X160269Y761049D01*
X160209Y761031D01*
X160147Y761018D01*
X160085Y761008D01*
X160023Y761002D01*
X159960Y761000D01*
X159897Y761002D01*
X159835Y761008D01*
X159773Y761018D01*
X159711Y761031D01*
X159651Y761049D01*
X159592Y761070D01*
X159534Y761095D01*
X159478Y761124D01*
X159424Y761156D01*
X159372Y761191D01*
X159323Y761229D01*
X159275Y761271D01*
X159231Y761315D01*
X159189Y761363D01*
X159151Y761412D01*
X159116Y761464D01*
X159084Y761518D01*
X159055Y761574D01*
X159030Y761632D01*
X159009Y761691D01*
X158991Y761751D01*
X158978Y761813D01*
X158968Y761875D01*
X158962Y761937D01*
X158960Y762000D01*
D10*
X101600Y753400D02*
X88600Y753400D01*
X101600Y753400D02*
X114600Y753400D01*
X114600Y821400D01*
X101600Y821400D01*
X88600Y821400D01*
X88600Y753400D01*
X101600Y753400D02*
X101600Y741600D01*
X101600Y821400D02*
X101600Y833200D01*
D12*
X77724Y780622D02*
X69596Y780622D01*
X69596Y782880D01*
X69598Y782973D01*
X69604Y783066D01*
X69613Y783159D01*
X69627Y783252D01*
X69644Y783343D01*
X69665Y783434D01*
X69690Y783524D01*
X69718Y783613D01*
X69750Y783701D01*
X69786Y783787D01*
X69825Y783872D01*
X69868Y783955D01*
X69914Y784036D01*
X69964Y784115D01*
X70016Y784192D01*
X70072Y784267D01*
X70131Y784339D01*
X70193Y784409D01*
X70257Y784477D01*
X70325Y784541D01*
X70395Y784603D01*
X70467Y784662D01*
X70542Y784718D01*
X70619Y784770D01*
X70698Y784820D01*
X70779Y784866D01*
X70862Y784909D01*
X70947Y784948D01*
X71033Y784984D01*
X71121Y785016D01*
X71210Y785044D01*
X71300Y785069D01*
X71391Y785090D01*
X71482Y785107D01*
X71575Y785121D01*
X71668Y785130D01*
X71761Y785136D01*
X71854Y785138D01*
X71947Y785136D01*
X72040Y785130D01*
X72133Y785121D01*
X72226Y785107D01*
X72317Y785090D01*
X72408Y785069D01*
X72498Y785044D01*
X72587Y785016D01*
X72675Y784984D01*
X72761Y784948D01*
X72846Y784909D01*
X72929Y784866D01*
X73010Y784820D01*
X73089Y784770D01*
X73166Y784718D01*
X73241Y784662D01*
X73313Y784603D01*
X73383Y784541D01*
X73451Y784477D01*
X73515Y784409D01*
X73577Y784339D01*
X73636Y784267D01*
X73692Y784192D01*
X73744Y784115D01*
X73794Y784036D01*
X73840Y783955D01*
X73883Y783872D01*
X73922Y783787D01*
X73958Y783701D01*
X73990Y783613D01*
X74018Y783524D01*
X74043Y783434D01*
X74064Y783343D01*
X74081Y783252D01*
X74095Y783159D01*
X74104Y783066D01*
X74110Y782973D01*
X74112Y782880D01*
X74112Y780622D01*
X74112Y783331D02*
X77724Y785137D01*
X71402Y789663D02*
X69596Y791920D01*
X77724Y791920D01*
X77724Y789663D02*
X77724Y794178D01*
D10*
X88600Y613700D02*
X101600Y613700D01*
X114600Y613700D01*
X114600Y681700D01*
X101600Y681700D01*
X88600Y681700D01*
X88600Y613700D01*
X101600Y613700D02*
X101600Y601900D01*
X101600Y681700D02*
X101600Y693500D01*
D12*
X77724Y640922D02*
X69596Y640922D01*
X69596Y643180D01*
X69598Y643273D01*
X69604Y643366D01*
X69613Y643459D01*
X69627Y643552D01*
X69644Y643643D01*
X69665Y643734D01*
X69690Y643824D01*
X69718Y643913D01*
X69750Y644001D01*
X69786Y644087D01*
X69825Y644172D01*
X69868Y644255D01*
X69914Y644336D01*
X69964Y644415D01*
X70016Y644492D01*
X70072Y644567D01*
X70131Y644639D01*
X70193Y644709D01*
X70257Y644777D01*
X70325Y644841D01*
X70395Y644903D01*
X70467Y644962D01*
X70542Y645018D01*
X70619Y645070D01*
X70698Y645120D01*
X70779Y645166D01*
X70862Y645209D01*
X70947Y645248D01*
X71033Y645284D01*
X71121Y645316D01*
X71210Y645344D01*
X71300Y645369D01*
X71391Y645390D01*
X71482Y645407D01*
X71575Y645421D01*
X71668Y645430D01*
X71761Y645436D01*
X71854Y645438D01*
X71947Y645436D01*
X72040Y645430D01*
X72133Y645421D01*
X72226Y645407D01*
X72317Y645390D01*
X72408Y645369D01*
X72498Y645344D01*
X72587Y645316D01*
X72675Y645284D01*
X72761Y645248D01*
X72846Y645209D01*
X72929Y645166D01*
X73010Y645120D01*
X73089Y645070D01*
X73166Y645018D01*
X73241Y644962D01*
X73313Y644903D01*
X73383Y644841D01*
X73451Y644777D01*
X73515Y644709D01*
X73577Y644639D01*
X73636Y644567D01*
X73692Y644492D01*
X73744Y644415D01*
X73794Y644336D01*
X73840Y644255D01*
X73883Y644172D01*
X73922Y644087D01*
X73958Y644001D01*
X73990Y643913D01*
X74018Y643824D01*
X74043Y643734D01*
X74064Y643643D01*
X74081Y643552D01*
X74095Y643459D01*
X74104Y643366D01*
X74110Y643273D01*
X74112Y643180D01*
X74112Y640922D01*
X74112Y643631D02*
X77724Y645437D01*
X69596Y652446D02*
X69598Y652535D01*
X69604Y652623D01*
X69613Y652711D01*
X69627Y652799D01*
X69644Y652886D01*
X69665Y652972D01*
X69690Y653057D01*
X69719Y653141D01*
X69751Y653224D01*
X69786Y653305D01*
X69826Y653384D01*
X69868Y653462D01*
X69914Y653538D01*
X69963Y653612D01*
X70016Y653683D01*
X70071Y653752D01*
X70130Y653819D01*
X70191Y653883D01*
X70255Y653944D01*
X70322Y654003D01*
X70391Y654058D01*
X70462Y654111D01*
X70536Y654160D01*
X70612Y654206D01*
X70690Y654248D01*
X70769Y654288D01*
X70850Y654323D01*
X70933Y654355D01*
X71017Y654384D01*
X71102Y654409D01*
X71188Y654430D01*
X71275Y654447D01*
X71363Y654461D01*
X71451Y654470D01*
X71539Y654476D01*
X71628Y654478D01*
X69596Y652446D02*
X69598Y652347D01*
X69604Y652247D01*
X69613Y652148D01*
X69626Y652050D01*
X69643Y651951D01*
X69664Y651854D01*
X69688Y651758D01*
X69716Y651662D01*
X69748Y651568D01*
X69783Y651475D01*
X69822Y651383D01*
X69864Y651293D01*
X69910Y651205D01*
X69959Y651118D01*
X70011Y651033D01*
X70067Y650951D01*
X70125Y650870D01*
X70187Y650792D01*
X70251Y650716D01*
X70318Y650643D01*
X70388Y650572D01*
X70461Y650505D01*
X70536Y650439D01*
X70614Y650377D01*
X70694Y650318D01*
X70776Y650262D01*
X70860Y650209D01*
X70947Y650159D01*
X71035Y650113D01*
X71124Y650070D01*
X71216Y650030D01*
X71309Y649994D01*
X71403Y649962D01*
X73209Y653802D02*
X73143Y653868D01*
X73075Y653931D01*
X73004Y653991D01*
X72930Y654048D01*
X72855Y654102D01*
X72777Y654152D01*
X72696Y654200D01*
X72614Y654243D01*
X72530Y654284D01*
X72445Y654320D01*
X72358Y654353D01*
X72270Y654383D01*
X72180Y654408D01*
X72090Y654430D01*
X71998Y654447D01*
X71906Y654461D01*
X71814Y654471D01*
X71721Y654477D01*
X71628Y654479D01*
X73208Y653801D02*
X77724Y649963D01*
X77724Y654478D01*
D10*
X321600Y800100D02*
X321600Y813100D01*
X321600Y800100D02*
X321600Y787100D01*
X389600Y787100D01*
X389600Y800100D01*
X389600Y813100D01*
X321600Y813100D01*
X321600Y800100D02*
X309800Y800100D01*
X389600Y800100D02*
X401400Y800100D01*
D12*
X310824Y823976D02*
X310824Y832104D01*
X313081Y832104D01*
X313174Y832102D01*
X313267Y832096D01*
X313360Y832087D01*
X313453Y832073D01*
X313544Y832056D01*
X313635Y832035D01*
X313725Y832010D01*
X313814Y831982D01*
X313902Y831950D01*
X313988Y831914D01*
X314073Y831875D01*
X314156Y831832D01*
X314237Y831786D01*
X314316Y831736D01*
X314393Y831684D01*
X314468Y831628D01*
X314540Y831569D01*
X314610Y831507D01*
X314678Y831443D01*
X314742Y831375D01*
X314804Y831305D01*
X314863Y831233D01*
X314919Y831158D01*
X314971Y831081D01*
X315021Y831002D01*
X315067Y830921D01*
X315110Y830838D01*
X315149Y830753D01*
X315185Y830667D01*
X315217Y830579D01*
X315245Y830490D01*
X315270Y830400D01*
X315291Y830309D01*
X315308Y830218D01*
X315322Y830125D01*
X315331Y830032D01*
X315337Y829939D01*
X315339Y829846D01*
X315337Y829753D01*
X315331Y829660D01*
X315322Y829567D01*
X315308Y829474D01*
X315291Y829383D01*
X315270Y829292D01*
X315245Y829202D01*
X315217Y829113D01*
X315185Y829025D01*
X315149Y828939D01*
X315110Y828854D01*
X315067Y828771D01*
X315021Y828690D01*
X314971Y828611D01*
X314919Y828534D01*
X314863Y828459D01*
X314804Y828387D01*
X314742Y828317D01*
X314678Y828249D01*
X314610Y828185D01*
X314540Y828123D01*
X314468Y828064D01*
X314393Y828008D01*
X314316Y827956D01*
X314237Y827906D01*
X314156Y827860D01*
X314073Y827817D01*
X313988Y827778D01*
X313902Y827742D01*
X313814Y827710D01*
X313725Y827682D01*
X313635Y827657D01*
X313544Y827636D01*
X313453Y827619D01*
X313360Y827605D01*
X313267Y827596D01*
X313174Y827590D01*
X313081Y827588D01*
X310824Y827588D01*
X313533Y827588D02*
X315339Y823976D01*
X319864Y823976D02*
X322122Y823976D01*
X322215Y823978D01*
X322308Y823984D01*
X322401Y823993D01*
X322494Y824007D01*
X322585Y824024D01*
X322676Y824045D01*
X322766Y824070D01*
X322855Y824098D01*
X322943Y824130D01*
X323029Y824166D01*
X323114Y824205D01*
X323197Y824248D01*
X323278Y824294D01*
X323357Y824344D01*
X323434Y824396D01*
X323509Y824452D01*
X323581Y824511D01*
X323651Y824573D01*
X323719Y824637D01*
X323783Y824705D01*
X323845Y824775D01*
X323904Y824847D01*
X323960Y824922D01*
X324012Y824999D01*
X324062Y825078D01*
X324108Y825159D01*
X324151Y825242D01*
X324190Y825327D01*
X324226Y825413D01*
X324258Y825501D01*
X324286Y825590D01*
X324311Y825680D01*
X324332Y825771D01*
X324349Y825862D01*
X324363Y825955D01*
X324372Y826048D01*
X324378Y826141D01*
X324380Y826234D01*
X324378Y826327D01*
X324372Y826420D01*
X324363Y826513D01*
X324349Y826606D01*
X324332Y826697D01*
X324311Y826788D01*
X324286Y826878D01*
X324258Y826967D01*
X324226Y827055D01*
X324190Y827141D01*
X324151Y827226D01*
X324108Y827309D01*
X324062Y827390D01*
X324012Y827469D01*
X323960Y827546D01*
X323904Y827621D01*
X323845Y827693D01*
X323783Y827763D01*
X323719Y827831D01*
X323651Y827895D01*
X323581Y827957D01*
X323509Y828016D01*
X323434Y828072D01*
X323357Y828124D01*
X323278Y828174D01*
X323197Y828220D01*
X323114Y828263D01*
X323029Y828302D01*
X322943Y828338D01*
X322855Y828370D01*
X322766Y828398D01*
X322676Y828423D01*
X322585Y828444D01*
X322494Y828461D01*
X322401Y828475D01*
X322308Y828484D01*
X322215Y828490D01*
X322122Y828492D01*
X322574Y832104D02*
X319864Y832104D01*
X322574Y832104D02*
X322657Y832102D01*
X322741Y832096D01*
X322824Y832087D01*
X322906Y832073D01*
X322987Y832056D01*
X323068Y832035D01*
X323148Y832010D01*
X323226Y831982D01*
X323303Y831950D01*
X323379Y831915D01*
X323453Y831876D01*
X323525Y831833D01*
X323595Y831788D01*
X323662Y831739D01*
X323728Y831687D01*
X323791Y831633D01*
X323851Y831575D01*
X323909Y831515D01*
X323963Y831452D01*
X324015Y831386D01*
X324064Y831319D01*
X324109Y831249D01*
X324152Y831177D01*
X324191Y831103D01*
X324226Y831027D01*
X324258Y830950D01*
X324286Y830872D01*
X324311Y830792D01*
X324332Y830711D01*
X324349Y830630D01*
X324363Y830548D01*
X324372Y830465D01*
X324378Y830381D01*
X324380Y830298D01*
X324378Y830215D01*
X324372Y830131D01*
X324363Y830048D01*
X324349Y829966D01*
X324332Y829885D01*
X324311Y829804D01*
X324286Y829724D01*
X324258Y829646D01*
X324226Y829569D01*
X324191Y829493D01*
X324152Y829419D01*
X324109Y829347D01*
X324064Y829277D01*
X324015Y829210D01*
X323963Y829144D01*
X323909Y829081D01*
X323851Y829021D01*
X323791Y828963D01*
X323728Y828909D01*
X323662Y828857D01*
X323595Y828808D01*
X323525Y828763D01*
X323453Y828720D01*
X323379Y828681D01*
X323303Y828646D01*
X323226Y828614D01*
X323148Y828586D01*
X323068Y828561D01*
X322987Y828540D01*
X322906Y828523D01*
X322824Y828509D01*
X322741Y828500D01*
X322657Y828494D01*
X322574Y828492D01*
X320768Y828492D01*
X328546Y823073D02*
X332158Y833007D01*
X336731Y832104D02*
X336731Y823976D01*
X336731Y832104D02*
X338989Y832104D01*
X339082Y832102D01*
X339175Y832096D01*
X339268Y832087D01*
X339361Y832073D01*
X339452Y832056D01*
X339543Y832035D01*
X339633Y832010D01*
X339722Y831982D01*
X339810Y831950D01*
X339896Y831914D01*
X339981Y831875D01*
X340064Y831832D01*
X340145Y831786D01*
X340224Y831736D01*
X340301Y831684D01*
X340376Y831628D01*
X340448Y831569D01*
X340518Y831507D01*
X340586Y831443D01*
X340650Y831375D01*
X340712Y831305D01*
X340771Y831233D01*
X340827Y831158D01*
X340879Y831081D01*
X340929Y831002D01*
X340975Y830921D01*
X341018Y830838D01*
X341057Y830753D01*
X341093Y830667D01*
X341125Y830579D01*
X341153Y830490D01*
X341178Y830400D01*
X341199Y830309D01*
X341216Y830218D01*
X341230Y830125D01*
X341239Y830032D01*
X341245Y829939D01*
X341247Y829846D01*
X341245Y829753D01*
X341239Y829660D01*
X341230Y829567D01*
X341216Y829474D01*
X341199Y829383D01*
X341178Y829292D01*
X341153Y829202D01*
X341125Y829113D01*
X341093Y829025D01*
X341057Y828939D01*
X341018Y828854D01*
X340975Y828771D01*
X340929Y828690D01*
X340879Y828611D01*
X340827Y828534D01*
X340771Y828459D01*
X340712Y828387D01*
X340650Y828317D01*
X340586Y828249D01*
X340518Y828185D01*
X340448Y828123D01*
X340376Y828064D01*
X340301Y828008D01*
X340224Y827956D01*
X340145Y827906D01*
X340064Y827860D01*
X339981Y827817D01*
X339896Y827778D01*
X339810Y827742D01*
X339722Y827710D01*
X339633Y827682D01*
X339543Y827657D01*
X339452Y827636D01*
X339361Y827619D01*
X339268Y827605D01*
X339175Y827596D01*
X339082Y827590D01*
X338989Y827588D01*
X336731Y827588D01*
X339441Y827588D02*
X341247Y823976D01*
X349238Y828492D02*
X350593Y828492D01*
X350593Y823976D01*
X347883Y823976D01*
X347800Y823978D01*
X347716Y823984D01*
X347633Y823993D01*
X347551Y824007D01*
X347470Y824024D01*
X347389Y824045D01*
X347309Y824070D01*
X347231Y824098D01*
X347154Y824130D01*
X347078Y824165D01*
X347004Y824204D01*
X346932Y824247D01*
X346862Y824292D01*
X346795Y824341D01*
X346729Y824393D01*
X346666Y824447D01*
X346606Y824505D01*
X346548Y824565D01*
X346494Y824628D01*
X346442Y824694D01*
X346393Y824761D01*
X346348Y824831D01*
X346305Y824903D01*
X346266Y824977D01*
X346231Y825053D01*
X346199Y825130D01*
X346171Y825208D01*
X346146Y825288D01*
X346125Y825369D01*
X346108Y825450D01*
X346094Y825532D01*
X346085Y825615D01*
X346079Y825699D01*
X346077Y825782D01*
X346077Y830298D01*
X346079Y830381D01*
X346085Y830465D01*
X346094Y830548D01*
X346108Y830630D01*
X346125Y830711D01*
X346146Y830792D01*
X346171Y830872D01*
X346199Y830950D01*
X346231Y831027D01*
X346266Y831103D01*
X346305Y831177D01*
X346348Y831249D01*
X346393Y831319D01*
X346442Y831386D01*
X346494Y831452D01*
X346548Y831515D01*
X346606Y831575D01*
X346666Y831633D01*
X346729Y831687D01*
X346795Y831739D01*
X346862Y831788D01*
X346932Y831833D01*
X347004Y831876D01*
X347078Y831915D01*
X347153Y831950D01*
X347231Y831982D01*
X347309Y832010D01*
X347389Y832035D01*
X347469Y832056D01*
X347551Y832073D01*
X347633Y832087D01*
X347716Y832096D01*
X347800Y832102D01*
X347883Y832104D01*
X350593Y832104D01*
X357784Y832104D02*
X355074Y823976D01*
X360493Y823976D02*
X357784Y832104D01*
X359816Y826008D02*
X355752Y826008D01*
X365099Y823976D02*
X365099Y832104D01*
X364196Y823976D02*
X366002Y823976D01*
X366002Y832104D02*
X364196Y832104D01*
X370461Y832104D02*
X370461Y823976D01*
X374977Y823976D02*
X370461Y832104D01*
X374977Y832104D02*
X374977Y823976D01*
D10*
X408800Y864700D02*
X523800Y864700D01*
X523800Y938700D01*
X408800Y938700D01*
X408800Y864700D01*
D11*
X430800Y859200D02*
X430802Y859263D01*
X430808Y859325D01*
X430818Y859387D01*
X430831Y859449D01*
X430849Y859509D01*
X430870Y859568D01*
X430895Y859626D01*
X430924Y859682D01*
X430956Y859736D01*
X430991Y859788D01*
X431029Y859837D01*
X431071Y859885D01*
X431115Y859929D01*
X431163Y859971D01*
X431212Y860009D01*
X431264Y860044D01*
X431318Y860076D01*
X431374Y860105D01*
X431432Y860130D01*
X431491Y860151D01*
X431551Y860169D01*
X431613Y860182D01*
X431675Y860192D01*
X431737Y860198D01*
X431800Y860200D01*
X431863Y860198D01*
X431925Y860192D01*
X431987Y860182D01*
X432049Y860169D01*
X432109Y860151D01*
X432168Y860130D01*
X432226Y860105D01*
X432282Y860076D01*
X432336Y860044D01*
X432388Y860009D01*
X432437Y859971D01*
X432485Y859929D01*
X432529Y859885D01*
X432571Y859837D01*
X432609Y859788D01*
X432644Y859736D01*
X432676Y859682D01*
X432705Y859626D01*
X432730Y859568D01*
X432751Y859509D01*
X432769Y859449D01*
X432782Y859387D01*
X432792Y859325D01*
X432798Y859263D01*
X432800Y859200D01*
X432798Y859137D01*
X432792Y859075D01*
X432782Y859013D01*
X432769Y858951D01*
X432751Y858891D01*
X432730Y858832D01*
X432705Y858774D01*
X432676Y858718D01*
X432644Y858664D01*
X432609Y858612D01*
X432571Y858563D01*
X432529Y858515D01*
X432485Y858471D01*
X432437Y858429D01*
X432388Y858391D01*
X432336Y858356D01*
X432282Y858324D01*
X432226Y858295D01*
X432168Y858270D01*
X432109Y858249D01*
X432049Y858231D01*
X431987Y858218D01*
X431925Y858208D01*
X431863Y858202D01*
X431800Y858200D01*
X431737Y858202D01*
X431675Y858208D01*
X431613Y858218D01*
X431551Y858231D01*
X431491Y858249D01*
X431432Y858270D01*
X431374Y858295D01*
X431318Y858324D01*
X431264Y858356D01*
X431212Y858391D01*
X431163Y858429D01*
X431115Y858471D01*
X431071Y858515D01*
X431029Y858563D01*
X430991Y858612D01*
X430956Y858664D01*
X430924Y858718D01*
X430895Y858774D01*
X430870Y858832D01*
X430849Y858891D01*
X430831Y858951D01*
X430818Y859013D01*
X430808Y859075D01*
X430802Y859137D01*
X430800Y859200D01*
D10*
X304568Y724200D02*
X304568Y711200D01*
X304568Y698200D01*
X372568Y698200D01*
X372568Y711200D01*
X372568Y724200D01*
X304568Y724200D01*
X304568Y711200D02*
X292768Y711200D01*
X372568Y711200D02*
X384368Y711200D01*
D12*
X319119Y735076D02*
X319119Y743204D01*
X321377Y743204D01*
X321470Y743202D01*
X321563Y743196D01*
X321656Y743187D01*
X321749Y743173D01*
X321840Y743156D01*
X321931Y743135D01*
X322021Y743110D01*
X322110Y743082D01*
X322198Y743050D01*
X322284Y743014D01*
X322369Y742975D01*
X322452Y742932D01*
X322533Y742886D01*
X322612Y742836D01*
X322689Y742784D01*
X322764Y742728D01*
X322836Y742669D01*
X322906Y742607D01*
X322974Y742543D01*
X323038Y742475D01*
X323100Y742405D01*
X323159Y742333D01*
X323215Y742258D01*
X323267Y742181D01*
X323317Y742102D01*
X323363Y742021D01*
X323406Y741938D01*
X323445Y741853D01*
X323481Y741767D01*
X323513Y741679D01*
X323541Y741590D01*
X323566Y741500D01*
X323587Y741409D01*
X323604Y741318D01*
X323618Y741225D01*
X323627Y741132D01*
X323633Y741039D01*
X323635Y740946D01*
X323633Y740853D01*
X323627Y740760D01*
X323618Y740667D01*
X323604Y740574D01*
X323587Y740483D01*
X323566Y740392D01*
X323541Y740302D01*
X323513Y740213D01*
X323481Y740125D01*
X323445Y740039D01*
X323406Y739954D01*
X323363Y739871D01*
X323317Y739790D01*
X323267Y739711D01*
X323215Y739634D01*
X323159Y739559D01*
X323100Y739487D01*
X323038Y739417D01*
X322974Y739349D01*
X322906Y739285D01*
X322836Y739223D01*
X322764Y739164D01*
X322689Y739108D01*
X322612Y739056D01*
X322533Y739006D01*
X322452Y738960D01*
X322369Y738917D01*
X322284Y738878D01*
X322198Y738842D01*
X322110Y738810D01*
X322021Y738782D01*
X321931Y738757D01*
X321840Y738736D01*
X321749Y738719D01*
X321656Y738705D01*
X321563Y738696D01*
X321470Y738690D01*
X321377Y738688D01*
X319119Y738688D01*
X321829Y738688D02*
X323635Y735076D01*
X328160Y736882D02*
X329966Y743204D01*
X328160Y736882D02*
X332676Y736882D01*
X331321Y738688D02*
X331321Y735076D01*
X336841Y734173D02*
X340454Y744107D01*
X345027Y743204D02*
X345027Y735076D01*
X345027Y743204D02*
X347285Y743204D01*
X347378Y743202D01*
X347471Y743196D01*
X347564Y743187D01*
X347657Y743173D01*
X347748Y743156D01*
X347839Y743135D01*
X347929Y743110D01*
X348018Y743082D01*
X348106Y743050D01*
X348192Y743014D01*
X348277Y742975D01*
X348360Y742932D01*
X348441Y742886D01*
X348520Y742836D01*
X348597Y742784D01*
X348672Y742728D01*
X348744Y742669D01*
X348814Y742607D01*
X348882Y742543D01*
X348946Y742475D01*
X349008Y742405D01*
X349067Y742333D01*
X349123Y742258D01*
X349175Y742181D01*
X349225Y742102D01*
X349271Y742021D01*
X349314Y741938D01*
X349353Y741853D01*
X349389Y741767D01*
X349421Y741679D01*
X349449Y741590D01*
X349474Y741500D01*
X349495Y741409D01*
X349512Y741318D01*
X349526Y741225D01*
X349535Y741132D01*
X349541Y741039D01*
X349543Y740946D01*
X349541Y740853D01*
X349535Y740760D01*
X349526Y740667D01*
X349512Y740574D01*
X349495Y740483D01*
X349474Y740392D01*
X349449Y740302D01*
X349421Y740213D01*
X349389Y740125D01*
X349353Y740039D01*
X349314Y739954D01*
X349271Y739871D01*
X349225Y739790D01*
X349175Y739711D01*
X349123Y739634D01*
X349067Y739559D01*
X349008Y739487D01*
X348946Y739417D01*
X348882Y739349D01*
X348814Y739285D01*
X348744Y739223D01*
X348672Y739164D01*
X348597Y739108D01*
X348520Y739056D01*
X348441Y739006D01*
X348360Y738960D01*
X348277Y738917D01*
X348192Y738878D01*
X348106Y738842D01*
X348018Y738810D01*
X347929Y738782D01*
X347839Y738757D01*
X347748Y738736D01*
X347657Y738719D01*
X347564Y738705D01*
X347471Y738696D01*
X347378Y738690D01*
X347285Y738688D01*
X345027Y738688D01*
X347736Y738688D02*
X349543Y735076D01*
X354404Y735076D02*
X354404Y743204D01*
X358017Y743204D01*
X358017Y739592D02*
X354404Y739592D01*
D10*
X419385Y724214D02*
X419385Y701364D01*
X419385Y749614D02*
X419385Y771264D01*
X485385Y771264D01*
X485385Y749614D01*
X485385Y724214D02*
X485385Y701364D01*
X485385Y701264D02*
X419385Y701264D01*
D11*
X410745Y736564D02*
X410747Y736627D01*
X410753Y736689D01*
X410763Y736751D01*
X410776Y736813D01*
X410794Y736873D01*
X410815Y736932D01*
X410840Y736990D01*
X410869Y737046D01*
X410901Y737100D01*
X410936Y737152D01*
X410974Y737201D01*
X411016Y737249D01*
X411060Y737293D01*
X411108Y737335D01*
X411157Y737373D01*
X411209Y737408D01*
X411263Y737440D01*
X411319Y737469D01*
X411377Y737494D01*
X411436Y737515D01*
X411496Y737533D01*
X411558Y737546D01*
X411620Y737556D01*
X411682Y737562D01*
X411745Y737564D01*
X411808Y737562D01*
X411870Y737556D01*
X411932Y737546D01*
X411994Y737533D01*
X412054Y737515D01*
X412113Y737494D01*
X412171Y737469D01*
X412227Y737440D01*
X412281Y737408D01*
X412333Y737373D01*
X412382Y737335D01*
X412430Y737293D01*
X412474Y737249D01*
X412516Y737201D01*
X412554Y737152D01*
X412589Y737100D01*
X412621Y737046D01*
X412650Y736990D01*
X412675Y736932D01*
X412696Y736873D01*
X412714Y736813D01*
X412727Y736751D01*
X412737Y736689D01*
X412743Y736627D01*
X412745Y736564D01*
X412743Y736501D01*
X412737Y736439D01*
X412727Y736377D01*
X412714Y736315D01*
X412696Y736255D01*
X412675Y736196D01*
X412650Y736138D01*
X412621Y736082D01*
X412589Y736028D01*
X412554Y735976D01*
X412516Y735927D01*
X412474Y735879D01*
X412430Y735835D01*
X412382Y735793D01*
X412333Y735755D01*
X412281Y735720D01*
X412227Y735688D01*
X412171Y735659D01*
X412113Y735634D01*
X412054Y735613D01*
X411994Y735595D01*
X411932Y735582D01*
X411870Y735572D01*
X411808Y735566D01*
X411745Y735564D01*
X411682Y735566D01*
X411620Y735572D01*
X411558Y735582D01*
X411496Y735595D01*
X411436Y735613D01*
X411377Y735634D01*
X411319Y735659D01*
X411263Y735688D01*
X411209Y735720D01*
X411157Y735755D01*
X411108Y735793D01*
X411060Y735835D01*
X411016Y735879D01*
X410974Y735927D01*
X410936Y735976D01*
X410901Y736028D01*
X410869Y736082D01*
X410840Y736138D01*
X410815Y736196D01*
X410794Y736255D01*
X410776Y736315D01*
X410763Y736377D01*
X410753Y736439D01*
X410747Y736501D01*
X410745Y736564D01*
D10*
X111900Y938700D02*
X-3100Y938700D01*
X-3100Y864700D01*
X111900Y864700D01*
X111900Y938700D01*
D11*
X87900Y944200D02*
X87902Y944263D01*
X87908Y944325D01*
X87918Y944387D01*
X87931Y944449D01*
X87949Y944509D01*
X87970Y944568D01*
X87995Y944626D01*
X88024Y944682D01*
X88056Y944736D01*
X88091Y944788D01*
X88129Y944837D01*
X88171Y944885D01*
X88215Y944929D01*
X88263Y944971D01*
X88312Y945009D01*
X88364Y945044D01*
X88418Y945076D01*
X88474Y945105D01*
X88532Y945130D01*
X88591Y945151D01*
X88651Y945169D01*
X88713Y945182D01*
X88775Y945192D01*
X88837Y945198D01*
X88900Y945200D01*
X88963Y945198D01*
X89025Y945192D01*
X89087Y945182D01*
X89149Y945169D01*
X89209Y945151D01*
X89268Y945130D01*
X89326Y945105D01*
X89382Y945076D01*
X89436Y945044D01*
X89488Y945009D01*
X89537Y944971D01*
X89585Y944929D01*
X89629Y944885D01*
X89671Y944837D01*
X89709Y944788D01*
X89744Y944736D01*
X89776Y944682D01*
X89805Y944626D01*
X89830Y944568D01*
X89851Y944509D01*
X89869Y944449D01*
X89882Y944387D01*
X89892Y944325D01*
X89898Y944263D01*
X89900Y944200D01*
X89898Y944137D01*
X89892Y944075D01*
X89882Y944013D01*
X89869Y943951D01*
X89851Y943891D01*
X89830Y943832D01*
X89805Y943774D01*
X89776Y943718D01*
X89744Y943664D01*
X89709Y943612D01*
X89671Y943563D01*
X89629Y943515D01*
X89585Y943471D01*
X89537Y943429D01*
X89488Y943391D01*
X89436Y943356D01*
X89382Y943324D01*
X89326Y943295D01*
X89268Y943270D01*
X89209Y943249D01*
X89149Y943231D01*
X89087Y943218D01*
X89025Y943208D01*
X88963Y943202D01*
X88900Y943200D01*
X88837Y943202D01*
X88775Y943208D01*
X88713Y943218D01*
X88651Y943231D01*
X88591Y943249D01*
X88532Y943270D01*
X88474Y943295D01*
X88418Y943324D01*
X88364Y943356D01*
X88312Y943391D01*
X88263Y943429D01*
X88215Y943471D01*
X88171Y943515D01*
X88129Y943563D01*
X88091Y943612D01*
X88056Y943664D01*
X88024Y943718D01*
X87995Y943774D01*
X87970Y943832D01*
X87949Y943891D01*
X87931Y943951D01*
X87918Y944013D01*
X87908Y944075D01*
X87902Y944137D01*
X87900Y944200D01*
D13*
X179276Y915507D02*
X329644Y915507D01*
X329644Y1062319D01*
X179276Y1062319D01*
X179276Y915507D01*
X183848Y1059779D02*
X325072Y1059779D01*
X325072Y1273901D01*
X183848Y1273901D01*
X183848Y1059779D01*
M02*
